<mxfile host="65bd71144e">
    <diagram id="0Dxemp0CACYOCfMthMPV" name="Page-1">
        <mxGraphModel dx="1141" dy="4606" grid="1" gridSize="10" guides="1" tooltips="1" connect="1" arrows="1" fold="1" page="1" pageScale="1" pageWidth="1169" pageHeight="827" math="0" shadow="0">
            <root>
                <mxCell id="0"/>
                <mxCell id="1" parent="0"/>
                <mxCell id="3" value="&lt;table border=&quot;0&quot; cellpadding=&quot;0&quot; cellspacing=&quot;0&quot; width=&quot;1900&quot; style=&quot;border-collapse:&#xa; collapse;width:1428pt&quot;&gt;&#xa;&#xa; &lt;colgroup&gt;&lt;col width=&quot;82&quot; style=&quot;mso-width-source:userset;mso-width-alt:2624;width:62pt&quot;&gt;&#xa; &lt;col width=&quot;60&quot; style=&quot;mso-width-source:userset;mso-width-alt:1920;width:45pt&quot;&gt;&#xa; &lt;col width=&quot;106&quot; style=&quot;mso-width-source:userset;mso-width-alt:3392;width:80pt&quot;&gt;&#xa; &lt;col width=&quot;108&quot; style=&quot;mso-width-source:userset;mso-width-alt:3456;width:81pt&quot;&gt;&#xa; &lt;col width=&quot;152&quot; style=&quot;mso-width-source:userset;mso-width-alt:4864;width:114pt&quot;&gt;&#xa; &lt;col width=&quot;203&quot; style=&quot;mso-width-source:userset;mso-width-alt:6496;width:152pt&quot;&gt;&#xa; &lt;col width=&quot;170&quot; style=&quot;mso-width-source:userset;mso-width-alt:5440;width:128pt&quot;&gt;&#xa; &lt;col width=&quot;203&quot; style=&quot;mso-width-source:userset;mso-width-alt:6496;width:152pt&quot;&gt;&#xa; &lt;col width=&quot;170&quot; style=&quot;mso-width-source:userset;mso-width-alt:5440;width:128pt&quot;&gt;&#xa; &lt;col width=&quot;153&quot; style=&quot;mso-width-source:userset;mso-width-alt:4896;width:115pt&quot;&gt;&#xa; &lt;col width=&quot;170&quot; style=&quot;mso-width-source:userset;mso-width-alt:5440;width:128pt&quot;&gt;&#xa; &lt;col width=&quot;153&quot; style=&quot;mso-width-source:userset;mso-width-alt:4896;width:115pt&quot;&gt;&#xa; &lt;col width=&quot;170&quot; style=&quot;mso-width-source:userset;mso-width-alt:5440;width:128pt&quot;&gt;&#xa; &lt;/colgroup&gt;&lt;tbody&gt;&lt;tr height=&quot;25&quot; style=&quot;height:18.75pt&quot;&gt;&#xa;  &lt;td height=&quot;25&quot; width=&quot;82&quot; style=&quot;height:18.75pt;width:62pt;font-size:11.0pt;&#xa;  color:white;font-weight:700;text-decoration:none;text-underline-style:none;&#xa;  text-line-through:none;font-family:游ゴシック, sans-serif;mso-font-charset:128;&#xa;  border-top:.5pt solid #8ED973;border-right:none;border-bottom:.5pt solid #8ED973;&#xa;  border-left:.5pt solid #8ED973;background:#4EA72E;mso-pattern:#4EA72E none&quot;&gt;日付&lt;/td&gt;&#xa;  &lt;td width=&quot;60&quot; style=&quot;width:45pt;font-size:11.0pt;color:white;font-weight:700;&#xa;  text-decoration:none;text-underline-style:none;text-line-through:none;&#xa;  font-family:游ゴシック, sans-serif;mso-font-charset:128;border-top:.5pt solid #8ED973;&#xa;  border-right:none;border-bottom:.5pt solid #8ED973;border-left:none;&#xa;  background:#4EA72E;mso-pattern:#4EA72E none&quot;&gt;場所&lt;/td&gt;&#xa;  &lt;td width=&quot;106&quot; style=&quot;width:80pt;font-size:11.0pt;color:white;font-weight:&#xa;  700;text-decoration:none;text-underline-style:none;text-line-through:none;&#xa;  font-family:游ゴシック, sans-serif;mso-font-charset:128;border-top:.5pt solid #8ED973;&#xa;  border-right:none;border-bottom:.5pt solid #8ED973;border-left:none;&#xa;  background:#4EA72E;mso-pattern:#4EA72E none&quot;&gt;レース番号&lt;/td&gt;&#xa;  &lt;td width=&quot;108&quot; style=&quot;width:81pt;font-size:11.0pt;color:white;font-weight:&#xa;  700;text-decoration:none;text-underline-style:none;text-line-through:none;&#xa;  font-family:游ゴシック, sans-serif;mso-font-charset:128;border-top:.5pt solid #8ED973;&#xa;  border-right:none;border-bottom:.5pt solid #8ED973;border-left:none;&#xa;  background:#4EA72E;mso-pattern:#4EA72E none&quot;&gt;ワイド 1 位&lt;/td&gt;&#xa;  &lt;td width=&quot;152&quot; style=&quot;width:114pt;font-size:11.0pt;color:white;font-weight:&#xa;  700;text-decoration:none;text-underline-style:none;text-line-through:none;&#xa;  font-family:游ゴシック, sans-serif;mso-font-charset:128;border-top:.5pt solid #8ED973;&#xa;  border-right:none;border-bottom:.5pt solid #8ED973;border-left:none;&#xa;  background:#4EA72E;mso-pattern:#4EA72E none&quot;&gt;ワイド 1 位の当選&lt;/td&gt;&#xa;  &lt;td width=&quot;203&quot; style=&quot;width:152pt;font-size:11.0pt;color:white;font-weight:&#xa;  700;text-decoration:none;text-underline-style:none;text-line-through:none;&#xa;  font-family:游ゴシック, sans-serif;mso-font-charset:128;border-top:.5pt solid #8ED973;&#xa;  border-right:none;border-bottom:.5pt solid #8ED973;border-left:none;&#xa;  background:#4EA72E;mso-pattern:#4EA72E none&quot;&gt;3 連単当選のオッズ順位&lt;/td&gt;&#xa;  &lt;td width=&quot;170&quot; style=&quot;width:128pt;font-size:11.0pt;color:white;font-weight:&#xa;  700;text-decoration:none;text-underline-style:none;text-line-through:none;&#xa;  font-family:游ゴシック, sans-serif;mso-font-charset:128;border-top:.5pt solid #8ED973;&#xa;  border-right:none;border-bottom:.5pt solid #8ED973;border-left:none;&#xa;  background:#4EA72E;mso-pattern:#4EA72E none&quot;&gt;3 連単当選のオッズ&lt;/td&gt;&#xa;  &lt;td width=&quot;203&quot; style=&quot;width:152pt;font-size:11.0pt;color:white;font-weight:&#xa;  700;text-decoration:none;text-underline-style:none;text-line-through:none;&#xa;  font-family:游ゴシック, sans-serif;mso-font-charset:128;border-top:.5pt solid #8ED973;&#xa;  border-right:none;border-bottom:.5pt solid #8ED973;border-left:none;&#xa;  background:#4EA72E;mso-pattern:#4EA72E none&quot;&gt;3 連複当選のオッズ順位&lt;/td&gt;&#xa;  &lt;td width=&quot;170&quot; style=&quot;width:128pt;font-size:11.0pt;color:white;font-weight:&#xa;  700;text-decoration:none;text-underline-style:none;text-line-through:none;&#xa;  font-family:游ゴシック, sans-serif;mso-font-charset:128;border-top:.5pt solid #8ED973;&#xa;  border-right:none;border-bottom:.5pt solid #8ED973;border-left:none;&#xa;  background:#4EA72E;mso-pattern:#4EA72E none&quot;&gt;3 連複当選のオッズ&lt;/td&gt;&#xa;  &lt;td width=&quot;153&quot; style=&quot;width:115pt;font-size:11.0pt;color:white;font-weight:&#xa;  700;text-decoration:none;text-underline-style:none;text-line-through:none;&#xa;  font-family:游ゴシック, sans-serif;mso-font-charset:128;border-top:.5pt solid #8ED973;&#xa;  border-right:none;border-bottom:.5pt solid #8ED973;border-left:none;&#xa;  background:#4EA72E;mso-pattern:#4EA72E none&quot;&gt;2 車単当選の順位&lt;/td&gt;&#xa;  &lt;td width=&quot;170&quot; style=&quot;width:128pt;font-size:11.0pt;color:white;font-weight:&#xa;  700;text-decoration:none;text-underline-style:none;text-line-through:none;&#xa;  font-family:游ゴシック, sans-serif;mso-font-charset:128;border-top:.5pt solid #8ED973;&#xa;  border-right:none;border-bottom:.5pt solid #8ED973;border-left:none;&#xa;  background:#4EA72E;mso-pattern:#4EA72E none&quot;&gt;2 車単当選のオッズ&lt;/td&gt;&#xa;  &lt;td width=&quot;153&quot; style=&quot;width:115pt;font-size:11.0pt;color:white;font-weight:&#xa;  700;text-decoration:none;text-underline-style:none;text-line-through:none;&#xa;  font-family:游ゴシック, sans-serif;mso-font-charset:128;border-top:.5pt solid #8ED973;&#xa;  border-right:none;border-bottom:.5pt solid #8ED973;border-left:none;&#xa;  background:#4EA72E;mso-pattern:#4EA72E none&quot;&gt;2 車複当選の順位&lt;/td&gt;&#xa;  &lt;td width=&quot;170&quot; style=&quot;width:128pt;font-size:11.0pt;color:white;font-weight:&#xa;  700;text-decoration:none;text-underline-style:none;text-line-through:none;&#xa;  font-family:游ゴシック, sans-serif;mso-font-charset:128;border-top:.5pt solid #8ED973;&#xa;  border-right:.5pt solid #8ED973;border-bottom:.5pt solid #8ED973;border-left:&#xa;  none;background:#4EA72E;mso-pattern:#4EA72E none&quot;&gt;2 車複当選のオッズ&lt;/td&gt;&#xa; &lt;/tr&gt;&#xa; &lt;tr height=&quot;25&quot; style=&quot;height:18.75pt&quot;&gt;&#xa;  &lt;td height=&quot;25&quot; class=&quot;xl65&quot; align=&quot;right&quot; style=&quot;height:18.75pt;font-size:11.0pt;&#xa;  color:black;font-weight:400;text-decoration:none;text-underline-style:none;&#xa;  text-line-through:none;font-family:游ゴシック, sans-serif;mso-font-charset:128;&#xa;  border-top:.5pt solid #8ED973;border-right:none;border-bottom:.5pt solid #8ED973;&#xa;  border-left:.5pt solid #8ED973;background:#DAF2D0;mso-pattern:#DAF2D0 none&quot;&gt;2024/3/18&lt;/td&gt;&#xa;  &lt;td style=&quot;font-size:11.0pt;color:black;font-weight:400;text-decoration:none;&#xa;  text-underline-style:none;text-line-through:none;font-family:游ゴシック, sans-serif;&#xa;  mso-font-charset:128;border-top:.5pt solid #8ED973;border-right:none;&#xa;  border-bottom:.5pt solid #8ED973;border-left:none;background:#DAF2D0;&#xa;  mso-pattern:#DAF2D0 none&quot;&gt;別府&lt;/td&gt;&#xa;  &lt;td style=&quot;font-size:11.0pt;color:black;font-weight:400;text-decoration:none;&#xa;  text-underline-style:none;text-line-through:none;font-family:游ゴシック, sans-serif;&#xa;  mso-font-charset:128;border-top:.5pt solid #8ED973;border-right:none;&#xa;  border-bottom:.5pt solid #8ED973;border-left:none;background:#DAF2D0;&#xa;  mso-pattern:#DAF2D0 none&quot;&gt;5R&lt;/td&gt;&#xa;  &lt;td style=&quot;font-size:11.0pt;color:black;font-weight:400;text-decoration:none;&#xa;  text-underline-style:none;text-line-through:none;font-family:游ゴシック, sans-serif;&#xa;  mso-font-charset:128;border-top:.5pt solid #8ED973;border-right:none;&#xa;  border-bottom:.5pt solid #8ED973;border-left:none;background:#DAF2D0;&#xa;  mso-pattern:#DAF2D0 none&quot;&gt;1.0&lt;/td&gt;&#xa;  &lt;td style=&quot;font-size:11.0pt;color:black;font-weight:400;text-decoration:none;&#xa;  text-underline-style:none;text-line-through:none;font-family:游ゴシック, sans-serif;&#xa;  mso-font-charset:128;border-top:.5pt solid #8ED973;border-right:none;&#xa;  border-bottom:.5pt solid #8ED973;border-left:none;background:#DAF2D0;&#xa;  mso-pattern:#DAF2D0 none&quot;&gt;○&lt;/td&gt;&#xa;  &lt;td align=&quot;right&quot; style=&quot;font-size:11.0pt;color:black;font-weight:400;&#xa;  text-decoration:none;text-underline-style:none;text-line-through:none;&#xa;  font-family:游ゴシック, sans-serif;mso-font-charset:128;border-top:.5pt solid #8ED973;&#xa;  border-right:none;border-bottom:.5pt solid #8ED973;border-left:none;&#xa;  background:#DAF2D0;mso-pattern:#DAF2D0 none&quot;&gt;1&lt;/td&gt;&#xa;  &lt;td align=&quot;right&quot; style=&quot;font-size:11.0pt;color:black;font-weight:400;&#xa;  text-decoration:none;text-underline-style:none;text-line-through:none;&#xa;  font-family:游ゴシック, sans-serif;mso-font-charset:128;border-top:.5pt solid #8ED973;&#xa;  border-right:none;border-bottom:.5pt solid #8ED973;border-left:none;&#xa;  background:#DAF2D0;mso-pattern:#DAF2D0 none&quot;&gt;5.4&lt;/td&gt;&#xa;  &lt;td align=&quot;right&quot; style=&quot;font-size:11.0pt;color:black;font-weight:400;&#xa;  text-decoration:none;text-underline-style:none;text-line-through:none;&#xa;  font-family:游ゴシック, sans-serif;mso-font-charset:128;border-top:.5pt solid #8ED973;&#xa;  border-right:none;border-bottom:.5pt solid #8ED973;border-left:none;&#xa;  background:#DAF2D0;mso-pattern:#DAF2D0 none&quot;&gt;1&lt;/td&gt;&#xa;  &lt;td align=&quot;right&quot; style=&quot;font-size:11.0pt;color:black;font-weight:400;&#xa;  text-decoration:none;text-underline-style:none;text-line-through:none;&#xa;  font-family:游ゴシック, sans-serif;mso-font-charset:128;border-top:.5pt solid #8ED973;&#xa;  border-right:none;border-bottom:.5pt solid #8ED973;border-left:none;&#xa;  background:#DAF2D0;mso-pattern:#DAF2D0 none&quot;&gt;2.4&lt;/td&gt;&#xa;  &lt;td align=&quot;right&quot; style=&quot;font-size:11.0pt;color:black;font-weight:400;&#xa;  text-decoration:none;text-underline-style:none;text-line-through:none;&#xa;  font-family:游ゴシック, sans-serif;mso-font-charset:128;border-top:.5pt solid #8ED973;&#xa;  border-right:none;border-bottom:.5pt solid #8ED973;border-left:none;&#xa;  background:#DAF2D0;mso-pattern:#DAF2D0 none&quot;&gt;1&lt;/td&gt;&#xa;  &lt;td align=&quot;right&quot; style=&quot;font-size:11.0pt;color:black;font-weight:400;&#xa;  text-decoration:none;text-underline-style:none;text-line-through:none;&#xa;  font-family:游ゴシック, sans-serif;mso-font-charset:128;border-top:.5pt solid #8ED973;&#xa;  border-right:none;border-bottom:.5pt solid #8ED973;border-left:none;&#xa;  background:#DAF2D0;mso-pattern:#DAF2D0 none&quot;&gt;1.9&lt;/td&gt;&#xa;  &lt;td align=&quot;right&quot; style=&quot;font-size:11.0pt;color:black;font-weight:400;&#xa;  text-decoration:none;text-underline-style:none;text-line-through:none;&#xa;  font-family:游ゴシック, sans-serif;mso-font-charset:128;border-top:.5pt solid #8ED973;&#xa;  border-right:none;border-bottom:.5pt solid #8ED973;border-left:none;&#xa;  background:#DAF2D0;mso-pattern:#DAF2D0 none&quot;&gt;1&lt;/td&gt;&#xa;  &lt;td align=&quot;right&quot; style=&quot;font-size:11.0pt;color:black;font-weight:400;&#xa;  text-decoration:none;text-underline-style:none;text-line-through:none;&#xa;  font-family:游ゴシック, sans-serif;mso-font-charset:128;border-top:.5pt solid #8ED973;&#xa;  border-right:.5pt solid #8ED973;border-bottom:.5pt solid #8ED973;border-left:&#xa;  none;background:#DAF2D0;mso-pattern:#DAF2D0 none&quot;&gt;1.1&lt;/td&gt;&#xa; &lt;/tr&gt;&#xa; &lt;tr height=&quot;25&quot; style=&quot;height:18.75pt&quot;&gt;&#xa;  &lt;td height=&quot;25&quot; class=&quot;xl65&quot; align=&quot;right&quot; style=&quot;height:18.75pt;font-size:11.0pt;&#xa;  color:black;font-weight:400;text-decoration:none;text-underline-style:none;&#xa;  text-line-through:none;font-family:游ゴシック, sans-serif;mso-font-charset:128;&#xa;  border-top:.5pt solid #8ED973;border-right:none;border-bottom:.5pt solid #8ED973;&#xa;  border-left:.5pt solid #8ED973&quot;&gt;2024/3/18&lt;/td&gt;&#xa;  &lt;td style=&quot;font-size:11.0pt;color:black;font-weight:400;text-decoration:none;&#xa;  text-underline-style:none;text-line-through:none;font-family:游ゴシック, sans-serif;&#xa;  mso-font-charset:128;border-top:.5pt solid #8ED973;border-right:none;&#xa;  border-bottom:.5pt solid #8ED973;border-left:none&quot;&gt;宇都宮&lt;/td&gt;&#xa;  &lt;td style=&quot;font-size:11.0pt;color:black;font-weight:400;text-decoration:none;&#xa;  text-underline-style:none;text-line-through:none;font-family:游ゴシック, sans-serif;&#xa;  mso-font-charset:128;border-top:.5pt solid #8ED973;border-right:none;&#xa;  border-bottom:.5pt solid #8ED973;border-left:none&quot;&gt;3R&lt;/td&gt;&#xa;  &lt;td style=&quot;font-size:11.0pt;color:black;font-weight:400;text-decoration:none;&#xa;  text-underline-style:none;text-line-through:none;font-family:游ゴシック, sans-serif;&#xa;  mso-font-charset:128;border-top:.5pt solid #8ED973;border-right:none;&#xa;  border-bottom:.5pt solid #8ED973;border-left:none&quot;&gt;1.0 ~ 1.1&lt;/td&gt;&#xa;  &lt;td style=&quot;font-size:11.0pt;color:black;font-weight:400;text-decoration:none;&#xa;  text-underline-style:none;text-line-through:none;font-family:游ゴシック, sans-serif;&#xa;  mso-font-charset:128;border-top:.5pt solid #8ED973;border-right:none;&#xa;  border-bottom:.5pt solid #8ED973;border-left:none&quot;&gt;○&lt;/td&gt;&#xa;  &lt;td align=&quot;right&quot; style=&quot;font-size:11.0pt;color:black;font-weight:400;&#xa;  text-decoration:none;text-underline-style:none;text-line-through:none;&#xa;  font-family:游ゴシック, sans-serif;mso-font-charset:128;border-top:.5pt solid #8ED973;&#xa;  border-right:none;border-bottom:.5pt solid #8ED973;border-left:none&quot;&gt;4&lt;/td&gt;&#xa;  &lt;td align=&quot;right&quot; style=&quot;font-size:11.0pt;color:black;font-weight:400;&#xa;  text-decoration:none;text-underline-style:none;text-line-through:none;&#xa;  font-family:游ゴシック, sans-serif;mso-font-charset:128;border-top:.5pt solid #8ED973;&#xa;  border-right:none;border-bottom:.5pt solid #8ED973;border-left:none&quot;&gt;22&lt;/td&gt;&#xa;  &lt;td align=&quot;right&quot; style=&quot;font-size:11.0pt;color:black;font-weight:400;&#xa;  text-decoration:none;text-underline-style:none;text-line-through:none;&#xa;  font-family:游ゴシック, sans-serif;mso-font-charset:128;border-top:.5pt solid #8ED973;&#xa;  border-right:none;border-bottom:.5pt solid #8ED973;border-left:none&quot;&gt;3&lt;/td&gt;&#xa;  &lt;td align=&quot;right&quot; style=&quot;font-size:11.0pt;color:black;font-weight:400;&#xa;  text-decoration:none;text-underline-style:none;text-line-through:none;&#xa;  font-family:游ゴシック, sans-serif;mso-font-charset:128;border-top:.5pt solid #8ED973;&#xa;  border-right:none;border-bottom:.5pt solid #8ED973;border-left:none&quot;&gt;11.9&lt;/td&gt;&#xa;  &lt;td align=&quot;right&quot; style=&quot;font-size:11.0pt;color:black;font-weight:400;&#xa;  text-decoration:none;text-underline-style:none;text-line-through:none;&#xa;  font-family:游ゴシック, sans-serif;mso-font-charset:128;border-top:.5pt solid #8ED973;&#xa;  border-right:none;border-bottom:.5pt solid #8ED973;border-left:none&quot;&gt;1&lt;/td&gt;&#xa;  &lt;td align=&quot;right&quot; style=&quot;font-size:11.0pt;color:black;font-weight:400;&#xa;  text-decoration:none;text-underline-style:none;text-line-through:none;&#xa;  font-family:游ゴシック, sans-serif;mso-font-charset:128;border-top:.5pt solid #8ED973;&#xa;  border-right:none;border-bottom:.5pt solid #8ED973;border-left:none&quot;&gt;1.7&lt;/td&gt;&#xa;  &lt;td align=&quot;right&quot; style=&quot;font-size:11.0pt;color:black;font-weight:400;&#xa;  text-decoration:none;text-underline-style:none;text-line-through:none;&#xa;  font-family:游ゴシック, sans-serif;mso-font-charset:128;border-top:.5pt solid #8ED973;&#xa;  border-right:none;border-bottom:.5pt solid #8ED973;border-left:none&quot;&gt;1&lt;/td&gt;&#xa;  &lt;td align=&quot;right&quot; style=&quot;font-size:11.0pt;color:black;font-weight:400;&#xa;  text-decoration:none;text-underline-style:none;text-line-through:none;&#xa;  font-family:游ゴシック, sans-serif;mso-font-charset:128;border-top:.5pt solid #8ED973;&#xa;  border-right:.5pt solid #8ED973;border-bottom:.5pt solid #8ED973;border-left:&#xa;  none&quot;&gt;1.2&lt;/td&gt;&#xa; &lt;/tr&gt;&#xa; &lt;tr height=&quot;25&quot; style=&quot;height:18.75pt&quot;&gt;&#xa;  &lt;td height=&quot;25&quot; class=&quot;xl65&quot; align=&quot;right&quot; style=&quot;height:18.75pt;font-size:11.0pt;&#xa;  color:black;font-weight:400;text-decoration:none;text-underline-style:none;&#xa;  text-line-through:none;font-family:游ゴシック, sans-serif;mso-font-charset:128;&#xa;  border-top:.5pt solid #8ED973;border-right:none;border-bottom:.5pt solid #8ED973;&#xa;  border-left:.5pt solid #8ED973;background:#DAF2D0;mso-pattern:#DAF2D0 none&quot;&gt;2024/3/19&lt;/td&gt;&#xa;  &lt;td style=&quot;font-size:11.0pt;color:black;font-weight:400;text-decoration:none;&#xa;  text-underline-style:none;text-line-through:none;font-family:游ゴシック, sans-serif;&#xa;  mso-font-charset:128;border-top:.5pt solid #8ED973;border-right:none;&#xa;  border-bottom:.5pt solid #8ED973;border-left:none;background:#DAF2D0;&#xa;  mso-pattern:#DAF2D0 none&quot;&gt;宇都宮&lt;/td&gt;&#xa;  &lt;td style=&quot;font-size:11.0pt;color:black;font-weight:400;text-decoration:none;&#xa;  text-underline-style:none;text-line-through:none;font-family:游ゴシック, sans-serif;&#xa;  mso-font-charset:128;border-top:.5pt solid #8ED973;border-right:none;&#xa;  border-bottom:.5pt solid #8ED973;border-left:none;background:#DAF2D0;&#xa;  mso-pattern:#DAF2D0 none&quot;&gt;1R&lt;/td&gt;&#xa;  &lt;td style=&quot;font-size:11.0pt;color:black;font-weight:400;text-decoration:none;&#xa;  text-underline-style:none;text-line-through:none;font-family:游ゴシック, sans-serif;&#xa;  mso-font-charset:128;border-top:.5pt solid #8ED973;border-right:none;&#xa;  border-bottom:.5pt solid #8ED973;border-left:none;background:#DAF2D0;&#xa;  mso-pattern:#DAF2D0 none&quot;&gt;1.0&lt;/td&gt;&#xa;  &lt;td style=&quot;font-size:11.0pt;color:black;font-weight:400;text-decoration:none;&#xa;  text-underline-style:none;text-line-through:none;font-family:游ゴシック, sans-serif;&#xa;  mso-font-charset:128;border-top:.5pt solid #8ED973;border-right:none;&#xa;  border-bottom:.5pt solid #8ED973;border-left:none;background:#DAF2D0;&#xa;  mso-pattern:#DAF2D0 none&quot;&gt;○&lt;/td&gt;&#xa;  &lt;td align=&quot;right&quot; style=&quot;font-size:11.0pt;color:black;font-weight:400;&#xa;  text-decoration:none;text-underline-style:none;text-line-through:none;&#xa;  font-family:游ゴシック, sans-serif;mso-font-charset:128;border-top:.5pt solid #8ED973;&#xa;  border-right:none;border-bottom:.5pt solid #8ED973;border-left:none;&#xa;  background:#DAF2D0;mso-pattern:#DAF2D0 none&quot;&gt;1&lt;/td&gt;&#xa;  &lt;td align=&quot;right&quot; style=&quot;font-size:11.0pt;color:black;font-weight:400;&#xa;  text-decoration:none;text-underline-style:none;text-line-through:none;&#xa;  font-family:游ゴシック, sans-serif;mso-font-charset:128;border-top:.5pt solid #8ED973;&#xa;  border-right:none;border-bottom:.5pt solid #8ED973;border-left:none;&#xa;  background:#DAF2D0;mso-pattern:#DAF2D0 none&quot;&gt;2&lt;/td&gt;&#xa;  &lt;td align=&quot;right&quot; style=&quot;font-size:11.0pt;color:black;font-weight:400;&#xa;  text-decoration:none;text-underline-style:none;text-line-through:none;&#xa;  font-family:游ゴシック, sans-serif;mso-font-charset:128;border-top:.5pt solid #8ED973;&#xa;  border-right:none;border-bottom:.5pt solid #8ED973;border-left:none;&#xa;  background:#DAF2D0;mso-pattern:#DAF2D0 none&quot;&gt;1&lt;/td&gt;&#xa;  &lt;td align=&quot;right&quot; style=&quot;font-size:11.0pt;color:black;font-weight:400;&#xa;  text-decoration:none;text-underline-style:none;text-line-through:none;&#xa;  font-family:游ゴシック, sans-serif;mso-font-charset:128;border-top:.5pt solid #8ED973;&#xa;  border-right:none;border-bottom:.5pt solid #8ED973;border-left:none;&#xa;  background:#DAF2D0;mso-pattern:#DAF2D0 none&quot;&gt;1.2&lt;/td&gt;&#xa;  &lt;td align=&quot;right&quot; style=&quot;font-size:11.0pt;color:black;font-weight:400;&#xa;  text-decoration:none;text-underline-style:none;text-line-through:none;&#xa;  font-family:游ゴシック, sans-serif;mso-font-charset:128;border-top:.5pt solid #8ED973;&#xa;  border-right:none;border-bottom:.5pt solid #8ED973;border-left:none;&#xa;  background:#DAF2D0;mso-pattern:#DAF2D0 none&quot;&gt;1&lt;/td&gt;&#xa;  &lt;td align=&quot;right&quot; style=&quot;font-size:11.0pt;color:black;font-weight:400;&#xa;  text-decoration:none;text-underline-style:none;text-line-through:none;&#xa;  font-family:游ゴシック, sans-serif;mso-font-charset:128;border-top:.5pt solid #8ED973;&#xa;  border-right:none;border-bottom:.5pt solid #8ED973;border-left:none;&#xa;  background:#DAF2D0;mso-pattern:#DAF2D0 none&quot;&gt;1.9&lt;/td&gt;&#xa;  &lt;td align=&quot;right&quot; style=&quot;font-size:11.0pt;color:black;font-weight:400;&#xa;  text-decoration:none;text-underline-style:none;text-line-through:none;&#xa;  font-family:游ゴシック, sans-serif;mso-font-charset:128;border-top:.5pt solid #8ED973;&#xa;  border-right:none;border-bottom:.5pt solid #8ED973;border-left:none;&#xa;  background:#DAF2D0;mso-pattern:#DAF2D0 none&quot;&gt;1&lt;/td&gt;&#xa;  &lt;td align=&quot;right&quot; style=&quot;font-size:11.0pt;color:black;font-weight:400;&#xa;  text-decoration:none;text-underline-style:none;text-line-through:none;&#xa;  font-family:游ゴシック, sans-serif;mso-font-charset:128;border-top:.5pt solid #8ED973;&#xa;  border-right:.5pt solid #8ED973;border-bottom:.5pt solid #8ED973;border-left:&#xa;  none;background:#DAF2D0;mso-pattern:#DAF2D0 none&quot;&gt;1.4&lt;/td&gt;&#xa; &lt;/tr&gt;&#xa; &lt;tr height=&quot;25&quot; style=&quot;height:18.75pt&quot;&gt;&#xa;  &lt;td height=&quot;25&quot; class=&quot;xl65&quot; align=&quot;right&quot; style=&quot;height:18.75pt;font-size:11.0pt;&#xa;  color:black;font-weight:400;text-decoration:none;text-underline-style:none;&#xa;  text-line-through:none;font-family:游ゴシック, sans-serif;mso-font-charset:128;&#xa;  border-top:.5pt solid #8ED973;border-right:none;border-bottom:.5pt solid #8ED973;&#xa;  border-left:.5pt solid #8ED973&quot;&gt;2024/3/20&lt;/td&gt;&#xa;  &lt;td style=&quot;font-size:11.0pt;color:black;font-weight:400;text-decoration:none;&#xa;  text-underline-style:none;text-line-through:none;font-family:游ゴシック, sans-serif;&#xa;  mso-font-charset:128;border-top:.5pt solid #8ED973;border-right:none;&#xa;  border-bottom:.5pt solid #8ED973;border-left:none&quot;&gt;松山&lt;/td&gt;&#xa;  &lt;td style=&quot;font-size:11.0pt;color:black;font-weight:400;text-decoration:none;&#xa;  text-underline-style:none;text-line-through:none;font-family:游ゴシック, sans-serif;&#xa;  mso-font-charset:128;border-top:.5pt solid #8ED973;border-right:none;&#xa;  border-bottom:.5pt solid #8ED973;border-left:none&quot;&gt;1R&lt;/td&gt;&#xa;  &lt;td style=&quot;font-size:11.0pt;color:black;font-weight:400;text-decoration:none;&#xa;  text-underline-style:none;text-line-through:none;font-family:游ゴシック, sans-serif;&#xa;  mso-font-charset:128;border-top:.5pt solid #8ED973;border-right:none;&#xa;  border-bottom:.5pt solid #8ED973;border-left:none&quot;&gt;1.0&lt;/td&gt;&#xa;  &lt;td style=&quot;font-size:11.0pt;color:black;font-weight:400;text-decoration:none;&#xa;  text-underline-style:none;text-line-through:none;font-family:游ゴシック, sans-serif;&#xa;  mso-font-charset:128;border-top:.5pt solid #8ED973;border-right:none;&#xa;  border-bottom:.5pt solid #8ED973;border-left:none&quot;&gt;○&lt;/td&gt;&#xa;  &lt;td align=&quot;right&quot; style=&quot;font-size:11.0pt;color:black;font-weight:400;&#xa;  text-decoration:none;text-underline-style:none;text-line-through:none;&#xa;  font-family:游ゴシック, sans-serif;mso-font-charset:128;border-top:.5pt solid #8ED973;&#xa;  border-right:none;border-bottom:.5pt solid #8ED973;border-left:none&quot;&gt;1&lt;/td&gt;&#xa;  &lt;td align=&quot;right&quot; style=&quot;font-size:11.0pt;color:black;font-weight:400;&#xa;  text-decoration:none;text-underline-style:none;text-line-through:none;&#xa;  font-family:游ゴシック, sans-serif;mso-font-charset:128;border-top:.5pt solid #8ED973;&#xa;  border-right:none;border-bottom:.5pt solid #8ED973;border-left:none&quot;&gt;3&lt;/td&gt;&#xa;  &lt;td align=&quot;right&quot; style=&quot;font-size:11.0pt;color:black;font-weight:400;&#xa;  text-decoration:none;text-underline-style:none;text-line-through:none;&#xa;  font-family:游ゴシック, sans-serif;mso-font-charset:128;border-top:.5pt solid #8ED973;&#xa;  border-right:none;border-bottom:.5pt solid #8ED973;border-left:none&quot;&gt;1&lt;/td&gt;&#xa;  &lt;td align=&quot;right&quot; style=&quot;font-size:11.0pt;color:black;font-weight:400;&#xa;  text-decoration:none;text-underline-style:none;text-line-through:none;&#xa;  font-family:游ゴシック, sans-serif;mso-font-charset:128;border-top:.5pt solid #8ED973;&#xa;  border-right:none;border-bottom:.5pt solid #8ED973;border-left:none&quot;&gt;2.1&lt;/td&gt;&#xa;  &lt;td align=&quot;right&quot; style=&quot;font-size:11.0pt;color:black;font-weight:400;&#xa;  text-decoration:none;text-underline-style:none;text-line-through:none;&#xa;  font-family:游ゴシック, sans-serif;mso-font-charset:128;border-top:.5pt solid #8ED973;&#xa;  border-right:none;border-bottom:.5pt solid #8ED973;border-left:none&quot;&gt;1&lt;/td&gt;&#xa;  &lt;td align=&quot;right&quot; style=&quot;font-size:11.0pt;color:black;font-weight:400;&#xa;  text-decoration:none;text-underline-style:none;text-line-through:none;&#xa;  font-family:游ゴシック, sans-serif;mso-font-charset:128;border-top:.5pt solid #8ED973;&#xa;  border-right:none;border-bottom:.5pt solid #8ED973;border-left:none&quot;&gt;1.5&lt;/td&gt;&#xa;  &lt;td align=&quot;right&quot; style=&quot;font-size:11.0pt;color:black;font-weight:400;&#xa;  text-decoration:none;text-underline-style:none;text-line-through:none;&#xa;  font-family:游ゴシック, sans-serif;mso-font-charset:128;border-top:.5pt solid #8ED973;&#xa;  border-right:none;border-bottom:.5pt solid #8ED973;border-left:none&quot;&gt;1&lt;/td&gt;&#xa;  &lt;td align=&quot;right&quot; style=&quot;font-size:11.0pt;color:black;font-weight:400;&#xa;  text-decoration:none;text-underline-style:none;text-line-through:none;&#xa;  font-family:游ゴシック, sans-serif;mso-font-charset:128;border-top:.5pt solid #8ED973;&#xa;  border-right:.5pt solid #8ED973;border-bottom:.5pt solid #8ED973;border-left:&#xa;  none&quot;&gt;1.2&lt;/td&gt;&#xa; &lt;/tr&gt;&#xa; &lt;tr height=&quot;25&quot; style=&quot;height:18.75pt&quot;&gt;&#xa;  &lt;td height=&quot;25&quot; class=&quot;xl65&quot; align=&quot;right&quot; style=&quot;height:18.75pt;font-size:11.0pt;&#xa;  color:black;font-weight:400;text-decoration:none;text-underline-style:none;&#xa;  text-line-through:none;font-family:游ゴシック, sans-serif;mso-font-charset:128;&#xa;  border-top:.5pt solid #8ED973;border-right:none;border-bottom:.5pt solid #8ED973;&#xa;  border-left:.5pt solid #8ED973;background:#DAF2D0;mso-pattern:#DAF2D0 none&quot;&gt;2024/3/20&lt;/td&gt;&#xa;  &lt;td style=&quot;font-size:11.0pt;color:black;font-weight:400;text-decoration:none;&#xa;  text-underline-style:none;text-line-through:none;font-family:游ゴシック, sans-serif;&#xa;  mso-font-charset:128;border-top:.5pt solid #8ED973;border-right:none;&#xa;  border-bottom:.5pt solid #8ED973;border-left:none;background:#DAF2D0;&#xa;  mso-pattern:#DAF2D0 none&quot;&gt;松山&lt;/td&gt;&#xa;  &lt;td style=&quot;font-size:11.0pt;color:black;font-weight:400;text-decoration:none;&#xa;  text-underline-style:none;text-line-through:none;font-family:游ゴシック, sans-serif;&#xa;  mso-font-charset:128;border-top:.5pt solid #8ED973;border-right:none;&#xa;  border-bottom:.5pt solid #8ED973;border-left:none;background:#DAF2D0;&#xa;  mso-pattern:#DAF2D0 none&quot;&gt;3R&lt;/td&gt;&#xa;  &lt;td style=&quot;font-size:11.0pt;color:black;font-weight:400;text-decoration:none;&#xa;  text-underline-style:none;text-line-through:none;font-family:游ゴシック, sans-serif;&#xa;  mso-font-charset:128;border-top:.5pt solid #8ED973;border-right:none;&#xa;  border-bottom:.5pt solid #8ED973;border-left:none;background:#DAF2D0;&#xa;  mso-pattern:#DAF2D0 none&quot;&gt;1.0 ~ 1.1&lt;/td&gt;&#xa;  &lt;td style=&quot;font-size:11.0pt;color:black;font-weight:400;text-decoration:none;&#xa;  text-underline-style:none;text-line-through:none;font-family:游ゴシック, sans-serif;&#xa;  mso-font-charset:128;border-top:.5pt solid #8ED973;border-right:none;&#xa;  border-bottom:.5pt solid #8ED973;border-left:none;background:#DAF2D0;&#xa;  mso-pattern:#DAF2D0 none&quot;&gt;○&lt;/td&gt;&#xa;  &lt;td align=&quot;right&quot; style=&quot;font-size:11.0pt;color:black;font-weight:400;&#xa;  text-decoration:none;text-underline-style:none;text-line-through:none;&#xa;  font-family:游ゴシック, sans-serif;mso-font-charset:128;border-top:.5pt solid #8ED973;&#xa;  border-right:none;border-bottom:.5pt solid #8ED973;border-left:none;&#xa;  background:#DAF2D0;mso-pattern:#DAF2D0 none&quot;&gt;7&lt;/td&gt;&#xa;  &lt;td align=&quot;right&quot; style=&quot;font-size:11.0pt;color:black;font-weight:400;&#xa;  text-decoration:none;text-underline-style:none;text-line-through:none;&#xa;  font-family:游ゴシック, sans-serif;mso-font-charset:128;border-top:.5pt solid #8ED973;&#xa;  border-right:none;border-bottom:.5pt solid #8ED973;border-left:none;&#xa;  background:#DAF2D0;mso-pattern:#DAF2D0 none&quot;&gt;29.5&lt;/td&gt;&#xa;  &lt;td align=&quot;right&quot; style=&quot;font-size:11.0pt;color:black;font-weight:400;&#xa;  text-decoration:none;text-underline-style:none;text-line-through:none;&#xa;  font-family:游ゴシック, sans-serif;mso-font-charset:128;border-top:.5pt solid #8ED973;&#xa;  border-right:none;border-bottom:.5pt solid #8ED973;border-left:none;&#xa;  background:#DAF2D0;mso-pattern:#DAF2D0 none&quot;&gt;2&lt;/td&gt;&#xa;  &lt;td align=&quot;right&quot; style=&quot;font-size:11.0pt;color:black;font-weight:400;&#xa;  text-decoration:none;text-underline-style:none;text-line-through:none;&#xa;  font-family:游ゴシック, sans-serif;mso-font-charset:128;border-top:.5pt solid #8ED973;&#xa;  border-right:none;border-bottom:.5pt solid #8ED973;border-left:none;&#xa;  background:#DAF2D0;mso-pattern:#DAF2D0 none&quot;&gt;4&lt;/td&gt;&#xa;  &lt;td align=&quot;right&quot; style=&quot;font-size:11.0pt;color:black;font-weight:400;&#xa;  text-decoration:none;text-underline-style:none;text-line-through:none;&#xa;  font-family:游ゴシック, sans-serif;mso-font-charset:128;border-top:.5pt solid #8ED973;&#xa;  border-right:none;border-bottom:.5pt solid #8ED973;border-left:none;&#xa;  background:#DAF2D0;mso-pattern:#DAF2D0 none&quot;&gt;3&lt;/td&gt;&#xa;  &lt;td align=&quot;right&quot; style=&quot;font-size:11.0pt;color:black;font-weight:400;&#xa;  text-decoration:none;text-underline-style:none;text-line-through:none;&#xa;  font-family:游ゴシック, sans-serif;mso-font-charset:128;border-top:.5pt solid #8ED973;&#xa;  border-right:none;border-bottom:.5pt solid #8ED973;border-left:none;&#xa;  background:#DAF2D0;mso-pattern:#DAF2D0 none&quot;&gt;15.2&lt;/td&gt;&#xa;  &lt;td align=&quot;right&quot; style=&quot;font-size:11.0pt;color:black;font-weight:400;&#xa;  text-decoration:none;text-underline-style:none;text-line-through:none;&#xa;  font-family:游ゴシック, sans-serif;mso-font-charset:128;border-top:.5pt solid #8ED973;&#xa;  border-right:none;border-bottom:.5pt solid #8ED973;border-left:none;&#xa;  background:#DAF2D0;mso-pattern:#DAF2D0 none&quot;&gt;2&lt;/td&gt;&#xa;  &lt;td align=&quot;right&quot; style=&quot;font-size:11.0pt;color:black;font-weight:400;&#xa;  text-decoration:none;text-underline-style:none;text-line-through:none;&#xa;  font-family:游ゴシック, sans-serif;mso-font-charset:128;border-top:.5pt solid #8ED973;&#xa;  border-right:.5pt solid #8ED973;border-bottom:.5pt solid #8ED973;border-left:&#xa;  none;background:#DAF2D0;mso-pattern:#DAF2D0 none&quot;&gt;9.2&lt;/td&gt;&#xa; &lt;/tr&gt;&#xa; &lt;tr height=&quot;25&quot; style=&quot;height:18.75pt&quot;&gt;&#xa;  &lt;td height=&quot;25&quot; class=&quot;xl65&quot; align=&quot;right&quot; style=&quot;height:18.75pt;font-size:11.0pt;&#xa;  color:black;font-weight:400;text-decoration:none;text-underline-style:none;&#xa;  text-line-through:none;font-family:游ゴシック, sans-serif;mso-font-charset:128;&#xa;  border-top:.5pt solid #8ED973;border-right:none;border-bottom:.5pt solid #8ED973;&#xa;  border-left:.5pt solid #8ED973&quot;&gt;2024/3/20&lt;/td&gt;&#xa;  &lt;td style=&quot;font-size:11.0pt;color:black;font-weight:400;text-decoration:none;&#xa;  text-underline-style:none;text-line-through:none;font-family:游ゴシック, sans-serif;&#xa;  mso-font-charset:128;border-top:.5pt solid #8ED973;border-right:none;&#xa;  border-bottom:.5pt solid #8ED973;border-left:none&quot;&gt;松山&lt;/td&gt;&#xa;  &lt;td style=&quot;font-size:11.0pt;color:black;font-weight:400;text-decoration:none;&#xa;  text-underline-style:none;text-line-through:none;font-family:游ゴシック, sans-serif;&#xa;  mso-font-charset:128;border-top:.5pt solid #8ED973;border-right:none;&#xa;  border-bottom:.5pt solid #8ED973;border-left:none&quot;&gt;6R&lt;/td&gt;&#xa;  &lt;td style=&quot;font-size:11.0pt;color:black;font-weight:400;text-decoration:none;&#xa;  text-underline-style:none;text-line-through:none;font-family:游ゴシック, sans-serif;&#xa;  mso-font-charset:128;border-top:.5pt solid #8ED973;border-right:none;&#xa;  border-bottom:.5pt solid #8ED973;border-left:none&quot;&gt;1.0 ~ 1.1&lt;/td&gt;&#xa;  &lt;td style=&quot;font-size:11.0pt;color:black;font-weight:400;text-decoration:none;&#xa;  text-underline-style:none;text-line-through:none;font-family:游ゴシック, sans-serif;&#xa;  mso-font-charset:128;border-top:.5pt solid #8ED973;border-right:none;&#xa;  border-bottom:.5pt solid #8ED973;border-left:none&quot;&gt;○&lt;/td&gt;&#xa;  &lt;td align=&quot;right&quot; style=&quot;font-size:11.0pt;color:black;font-weight:400;&#xa;  text-decoration:none;text-underline-style:none;text-line-through:none;&#xa;  font-family:游ゴシック, sans-serif;mso-font-charset:128;border-top:.5pt solid #8ED973;&#xa;  border-right:none;border-bottom:.5pt solid #8ED973;border-left:none&quot;&gt;5&lt;/td&gt;&#xa;  &lt;td align=&quot;right&quot; style=&quot;font-size:11.0pt;color:black;font-weight:400;&#xa;  text-decoration:none;text-underline-style:none;text-line-through:none;&#xa;  font-family:游ゴシック, sans-serif;mso-font-charset:128;border-top:.5pt solid #8ED973;&#xa;  border-right:none;border-bottom:.5pt solid #8ED973;border-left:none&quot;&gt;14.4&lt;/td&gt;&#xa;  &lt;td align=&quot;right&quot; style=&quot;font-size:11.0pt;color:black;font-weight:400;&#xa;  text-decoration:none;text-underline-style:none;text-line-through:none;&#xa;  font-family:游ゴシック, sans-serif;mso-font-charset:128;border-top:.5pt solid #8ED973;&#xa;  border-right:none;border-bottom:.5pt solid #8ED973;border-left:none&quot;&gt;2&lt;/td&gt;&#xa;  &lt;td align=&quot;right&quot; style=&quot;font-size:11.0pt;color:black;font-weight:400;&#xa;  text-decoration:none;text-underline-style:none;text-line-through:none;&#xa;  font-family:游ゴシック, sans-serif;mso-font-charset:128;border-top:.5pt solid #8ED973;&#xa;  border-right:none;border-bottom:.5pt solid #8ED973;border-left:none&quot;&gt;2.4&lt;/td&gt;&#xa;  &lt;td align=&quot;right&quot; style=&quot;font-size:11.0pt;color:black;font-weight:400;&#xa;  text-decoration:none;text-underline-style:none;text-line-through:none;&#xa;  font-family:游ゴシック, sans-serif;mso-font-charset:128;border-top:.5pt solid #8ED973;&#xa;  border-right:none;border-bottom:.5pt solid #8ED973;border-left:none&quot;&gt;4&lt;/td&gt;&#xa;  &lt;td align=&quot;right&quot; style=&quot;font-size:11.0pt;color:black;font-weight:400;&#xa;  text-decoration:none;text-underline-style:none;text-line-through:none;&#xa;  font-family:游ゴシック, sans-serif;mso-font-charset:128;border-top:.5pt solid #8ED973;&#xa;  border-right:none;border-bottom:.5pt solid #8ED973;border-left:none&quot;&gt;9.1&lt;/td&gt;&#xa;  &lt;td align=&quot;right&quot; style=&quot;font-size:11.0pt;color:black;font-weight:400;&#xa;  text-decoration:none;text-underline-style:none;text-line-through:none;&#xa;  font-family:游ゴシック, sans-serif;mso-font-charset:128;border-top:.5pt solid #8ED973;&#xa;  border-right:none;border-bottom:.5pt solid #8ED973;border-left:none&quot;&gt;4&lt;/td&gt;&#xa;  &lt;td align=&quot;right&quot; style=&quot;font-size:11.0pt;color:black;font-weight:400;&#xa;  text-decoration:none;text-underline-style:none;text-line-through:none;&#xa;  font-family:游ゴシック, sans-serif;mso-font-charset:128;border-top:.5pt solid #8ED973;&#xa;  border-right:.5pt solid #8ED973;border-bottom:.5pt solid #8ED973;border-left:&#xa;  none&quot;&gt;7.8&lt;/td&gt;&#xa; &lt;/tr&gt;&#xa; &lt;tr height=&quot;25&quot; style=&quot;height:18.75pt&quot;&gt;&#xa;  &lt;td height=&quot;25&quot; class=&quot;xl65&quot; align=&quot;right&quot; style=&quot;height:18.75pt;font-size:11.0pt;&#xa;  color:black;font-weight:400;text-decoration:none;text-underline-style:none;&#xa;  text-line-through:none;font-family:游ゴシック, sans-serif;mso-font-charset:128;&#xa;  border-top:.5pt solid #8ED973;border-right:none;border-bottom:.5pt solid #8ED973;&#xa;  border-left:.5pt solid #8ED973;background:#DAF2D0;mso-pattern:#DAF2D0 none&quot;&gt;2024/3/20&lt;/td&gt;&#xa;  &lt;td style=&quot;font-size:11.0pt;color:black;font-weight:400;text-decoration:none;&#xa;  text-underline-style:none;text-line-through:none;font-family:游ゴシック, sans-serif;&#xa;  mso-font-charset:128;border-top:.5pt solid #8ED973;border-right:none;&#xa;  border-bottom:.5pt solid #8ED973;border-left:none;background:#DAF2D0;&#xa;  mso-pattern:#DAF2D0 none&quot;&gt;松山&lt;/td&gt;&#xa;  &lt;td style=&quot;font-size:11.0pt;color:black;font-weight:400;text-decoration:none;&#xa;  text-underline-style:none;text-line-through:none;font-family:游ゴシック, sans-serif;&#xa;  mso-font-charset:128;border-top:.5pt solid #8ED973;border-right:none;&#xa;  border-bottom:.5pt solid #8ED973;border-left:none;background:#DAF2D0;&#xa;  mso-pattern:#DAF2D0 none&quot;&gt;8R&lt;/td&gt;&#xa;  &lt;td style=&quot;font-size:11.0pt;color:black;font-weight:400;text-decoration:none;&#xa;  text-underline-style:none;text-line-through:none;font-family:游ゴシック, sans-serif;&#xa;  mso-font-charset:128;border-top:.5pt solid #8ED973;border-right:none;&#xa;  border-bottom:.5pt solid #8ED973;border-left:none;background:#DAF2D0;&#xa;  mso-pattern:#DAF2D0 none&quot;&gt;1.0&lt;/td&gt;&#xa;  &lt;td style=&quot;font-size:11.0pt;color:black;font-weight:400;text-decoration:none;&#xa;  text-underline-style:none;text-line-through:none;font-family:游ゴシック, sans-serif;&#xa;  mso-font-charset:128;border-top:.5pt solid #8ED973;border-right:none;&#xa;  border-bottom:.5pt solid #8ED973;border-left:none;background:#DAF2D0;&#xa;  mso-pattern:#DAF2D0 none&quot;&gt;✕&lt;/td&gt;&#xa;  &lt;td align=&quot;right&quot; style=&quot;font-size:11.0pt;color:black;font-weight:400;&#xa;  text-decoration:none;text-underline-style:none;text-line-through:none;&#xa;  font-family:游ゴシック, sans-serif;mso-font-charset:128;border-top:.5pt solid #8ED973;&#xa;  border-right:none;border-bottom:.5pt solid #8ED973;border-left:none;&#xa;  background:#DAF2D0;mso-pattern:#DAF2D0 none&quot;&gt;64&lt;/td&gt;&#xa;  &lt;td align=&quot;right&quot; style=&quot;font-size:11.0pt;color:black;font-weight:400;&#xa;  text-decoration:none;text-underline-style:none;text-line-through:none;&#xa;  font-family:游ゴシック, sans-serif;mso-font-charset:128;border-top:.5pt solid #8ED973;&#xa;  border-right:none;border-bottom:.5pt solid #8ED973;border-left:none;&#xa;  background:#DAF2D0;mso-pattern:#DAF2D0 none&quot;&gt;934.2&lt;/td&gt;&#xa;  &lt;td align=&quot;right&quot; style=&quot;font-size:11.0pt;color:black;font-weight:400;&#xa;  text-decoration:none;text-underline-style:none;text-line-through:none;&#xa;  font-family:游ゴシック, sans-serif;mso-font-charset:128;border-top:.5pt solid #8ED973;&#xa;  border-right:none;border-bottom:.5pt solid #8ED973;border-left:none;&#xa;  background:#DAF2D0;mso-pattern:#DAF2D0 none&quot;&gt;6&lt;/td&gt;&#xa;  &lt;td align=&quot;right&quot; style=&quot;font-size:11.0pt;color:black;font-weight:400;&#xa;  text-decoration:none;text-underline-style:none;text-line-through:none;&#xa;  font-family:游ゴシック, sans-serif;mso-font-charset:128;border-top:.5pt solid #8ED973;&#xa;  border-right:none;border-bottom:.5pt solid #8ED973;border-left:none;&#xa;  background:#DAF2D0;mso-pattern:#DAF2D0 none&quot;&gt;32&lt;/td&gt;&#xa;  &lt;td align=&quot;right&quot; style=&quot;font-size:11.0pt;color:black;font-weight:400;&#xa;  text-decoration:none;text-underline-style:none;text-line-through:none;&#xa;  font-family:游ゴシック, sans-serif;mso-font-charset:128;border-top:.5pt solid #8ED973;&#xa;  border-right:none;border-bottom:.5pt solid #8ED973;border-left:none;&#xa;  background:#DAF2D0;mso-pattern:#DAF2D0 none&quot;&gt;21&lt;/td&gt;&#xa;  &lt;td align=&quot;right&quot; style=&quot;font-size:11.0pt;color:black;font-weight:400;&#xa;  text-decoration:none;text-underline-style:none;text-line-through:none;&#xa;  font-family:游ゴシック, sans-serif;mso-font-charset:128;border-top:.5pt solid #8ED973;&#xa;  border-right:none;border-bottom:.5pt solid #8ED973;border-left:none;&#xa;  background:#DAF2D0;mso-pattern:#DAF2D0 none&quot;&gt;257.6&lt;/td&gt;&#xa;  &lt;td align=&quot;right&quot; style=&quot;font-size:11.0pt;color:black;font-weight:400;&#xa;  text-decoration:none;text-underline-style:none;text-line-through:none;&#xa;  font-family:游ゴシック, sans-serif;mso-font-charset:128;border-top:.5pt solid #8ED973;&#xa;  border-right:none;border-bottom:.5pt solid #8ED973;border-left:none;&#xa;  background:#DAF2D0;mso-pattern:#DAF2D0 none&quot;&gt;11&lt;/td&gt;&#xa;  &lt;td align=&quot;right&quot; style=&quot;font-size:11.0pt;color:black;font-weight:400;&#xa;  text-decoration:none;text-underline-style:none;text-line-through:none;&#xa;  font-family:游ゴシック, sans-serif;mso-font-charset:128;border-top:.5pt solid #8ED973;&#xa;  border-right:.5pt solid #8ED973;border-bottom:.5pt solid #8ED973;border-left:&#xa;  none;background:#DAF2D0;mso-pattern:#DAF2D0 none&quot;&gt;146.4&lt;/td&gt;&#xa; &lt;/tr&gt;&#xa; &lt;tr height=&quot;25&quot; style=&quot;height:18.75pt&quot;&gt;&#xa;  &lt;td height=&quot;25&quot; class=&quot;xl65&quot; align=&quot;right&quot; style=&quot;height:18.75pt;font-size:11.0pt;&#xa;  color:black;font-weight:400;text-decoration:none;text-underline-style:none;&#xa;  text-line-through:none;font-family:游ゴシック, sans-serif;mso-font-charset:128;&#xa;  border-top:.5pt solid #8ED973;border-right:none;border-bottom:.5pt solid #8ED973;&#xa;  border-left:.5pt solid #8ED973&quot;&gt;2024/3/20&lt;/td&gt;&#xa;  &lt;td style=&quot;font-size:11.0pt;color:black;font-weight:400;text-decoration:none;&#xa;  text-underline-style:none;text-line-through:none;font-family:游ゴシック, sans-serif;&#xa;  mso-font-charset:128;border-top:.5pt solid #8ED973;border-right:none;&#xa;  border-bottom:.5pt solid #8ED973;border-left:none&quot;&gt;大垣&lt;/td&gt;&#xa;  &lt;td style=&quot;font-size:11.0pt;color:black;font-weight:400;text-decoration:none;&#xa;  text-underline-style:none;text-line-through:none;font-family:游ゴシック, sans-serif;&#xa;  mso-font-charset:128;border-top:.5pt solid #8ED973;border-right:none;&#xa;  border-bottom:.5pt solid #8ED973;border-left:none&quot;&gt;4R&lt;/td&gt;&#xa;  &lt;td style=&quot;font-size:11.0pt;color:black;font-weight:400;text-decoration:none;&#xa;  text-underline-style:none;text-line-through:none;font-family:游ゴシック, sans-serif;&#xa;  mso-font-charset:128;border-top:.5pt solid #8ED973;border-right:none;&#xa;  border-bottom:.5pt solid #8ED973;border-left:none&quot;&gt;1.0&lt;/td&gt;&#xa;  &lt;td style=&quot;font-size:11.0pt;color:black;font-weight:400;text-decoration:none;&#xa;  text-underline-style:none;text-line-through:none;font-family:游ゴシック, sans-serif;&#xa;  mso-font-charset:128;border-top:.5pt solid #8ED973;border-right:none;&#xa;  border-bottom:.5pt solid #8ED973;border-left:none&quot;&gt;○&lt;/td&gt;&#xa;  &lt;td align=&quot;right&quot; style=&quot;font-size:11.0pt;color:black;font-weight:400;&#xa;  text-decoration:none;text-underline-style:none;text-line-through:none;&#xa;  font-family:游ゴシック, sans-serif;mso-font-charset:128;border-top:.5pt solid #8ED973;&#xa;  border-right:none;border-bottom:.5pt solid #8ED973;border-left:none&quot;&gt;1&lt;/td&gt;&#xa;  &lt;td align=&quot;right&quot; style=&quot;font-size:11.0pt;color:black;font-weight:400;&#xa;  text-decoration:none;text-underline-style:none;text-line-through:none;&#xa;  font-family:游ゴシック, sans-serif;mso-font-charset:128;border-top:.5pt solid #8ED973;&#xa;  border-right:none;border-bottom:.5pt solid #8ED973;border-left:none&quot;&gt;1.9&lt;/td&gt;&#xa;  &lt;td align=&quot;right&quot; style=&quot;font-size:11.0pt;color:black;font-weight:400;&#xa;  text-decoration:none;text-underline-style:none;text-line-through:none;&#xa;  font-family:游ゴシック, sans-serif;mso-font-charset:128;border-top:.5pt solid #8ED973;&#xa;  border-right:none;border-bottom:.5pt solid #8ED973;border-left:none&quot;&gt;1&lt;/td&gt;&#xa;  &lt;td align=&quot;right&quot; style=&quot;font-size:11.0pt;color:black;font-weight:400;&#xa;  text-decoration:none;text-underline-style:none;text-line-through:none;&#xa;  font-family:游ゴシック, sans-serif;mso-font-charset:128;border-top:.5pt solid #8ED973;&#xa;  border-right:none;border-bottom:.5pt solid #8ED973;border-left:none&quot;&gt;1.8&lt;/td&gt;&#xa;  &lt;td align=&quot;right&quot; style=&quot;font-size:11.0pt;color:black;font-weight:400;&#xa;  text-decoration:none;text-underline-style:none;text-line-through:none;&#xa;  font-family:游ゴシック, sans-serif;mso-font-charset:128;border-top:.5pt solid #8ED973;&#xa;  border-right:none;border-bottom:.5pt solid #8ED973;border-left:none&quot;&gt;1&lt;/td&gt;&#xa;  &lt;td align=&quot;right&quot; style=&quot;font-size:11.0pt;color:black;font-weight:400;&#xa;  text-decoration:none;text-underline-style:none;text-line-through:none;&#xa;  font-family:游ゴシック, sans-serif;mso-font-charset:128;border-top:.5pt solid #8ED973;&#xa;  border-right:none;border-bottom:.5pt solid #8ED973;border-left:none&quot;&gt;1.4&lt;/td&gt;&#xa;  &lt;td align=&quot;right&quot; style=&quot;font-size:11.0pt;color:black;font-weight:400;&#xa;  text-decoration:none;text-underline-style:none;text-line-through:none;&#xa;  font-family:游ゴシック, sans-serif;mso-font-charset:128;border-top:.5pt solid #8ED973;&#xa;  border-right:none;border-bottom:.5pt solid #8ED973;border-left:none&quot;&gt;1&lt;/td&gt;&#xa;  &lt;td align=&quot;right&quot; style=&quot;font-size:11.0pt;color:black;font-weight:400;&#xa;  text-decoration:none;text-underline-style:none;text-line-through:none;&#xa;  font-family:游ゴシック, sans-serif;mso-font-charset:128;border-top:.5pt solid #8ED973;&#xa;  border-right:.5pt solid #8ED973;border-bottom:.5pt solid #8ED973;border-left:&#xa;  none&quot;&gt;1.1&lt;/td&gt;&#xa; &lt;/tr&gt;&#xa; &lt;tr height=&quot;25&quot; style=&quot;height:18.75pt&quot;&gt;&#xa;  &lt;td height=&quot;25&quot; class=&quot;xl65&quot; align=&quot;right&quot; style=&quot;height:18.75pt;font-size:11.0pt;&#xa;  color:black;font-weight:400;text-decoration:none;text-underline-style:none;&#xa;  text-line-through:none;font-family:游ゴシック, sans-serif;mso-font-charset:128;&#xa;  border-top:.5pt solid #8ED973;border-right:none;border-bottom:.5pt solid #8ED973;&#xa;  border-left:.5pt solid #8ED973;background:#DAF2D0;mso-pattern:#DAF2D0 none&quot;&gt;2024/3/20&lt;/td&gt;&#xa;  &lt;td style=&quot;font-size:11.0pt;color:black;font-weight:400;text-decoration:none;&#xa;  text-underline-style:none;text-line-through:none;font-family:游ゴシック, sans-serif;&#xa;  mso-font-charset:128;border-top:.5pt solid #8ED973;border-right:none;&#xa;  border-bottom:.5pt solid #8ED973;border-left:none;background:#DAF2D0;&#xa;  mso-pattern:#DAF2D0 none&quot;&gt;大垣&lt;/td&gt;&#xa;  &lt;td style=&quot;font-size:11.0pt;color:black;font-weight:400;text-decoration:none;&#xa;  text-underline-style:none;text-line-through:none;font-family:游ゴシック, sans-serif;&#xa;  mso-font-charset:128;border-top:.5pt solid #8ED973;border-right:none;&#xa;  border-bottom:.5pt solid #8ED973;border-left:none;background:#DAF2D0;&#xa;  mso-pattern:#DAF2D0 none&quot;&gt;5R&lt;/td&gt;&#xa;  &lt;td style=&quot;font-size:11.0pt;color:black;font-weight:400;text-decoration:none;&#xa;  text-underline-style:none;text-line-through:none;font-family:游ゴシック, sans-serif;&#xa;  mso-font-charset:128;border-top:.5pt solid #8ED973;border-right:none;&#xa;  border-bottom:.5pt solid #8ED973;border-left:none;background:#DAF2D0;&#xa;  mso-pattern:#DAF2D0 none&quot;&gt;1.0 ~ 1.1&lt;/td&gt;&#xa;  &lt;td style=&quot;font-size:11.0pt;color:black;font-weight:400;text-decoration:none;&#xa;  text-underline-style:none;text-line-through:none;font-family:游ゴシック, sans-serif;&#xa;  mso-font-charset:128;border-top:.5pt solid #8ED973;border-right:none;&#xa;  border-bottom:.5pt solid #8ED973;border-left:none;background:#DAF2D0;&#xa;  mso-pattern:#DAF2D0 none&quot;&gt;○&lt;/td&gt;&#xa;  &lt;td align=&quot;right&quot; style=&quot;font-size:11.0pt;color:black;font-weight:400;&#xa;  text-decoration:none;text-underline-style:none;text-line-through:none;&#xa;  font-family:游ゴシック, sans-serif;mso-font-charset:128;border-top:.5pt solid #8ED973;&#xa;  border-right:none;border-bottom:.5pt solid #8ED973;border-left:none;&#xa;  background:#DAF2D0;mso-pattern:#DAF2D0 none&quot;&gt;18&lt;/td&gt;&#xa;  &lt;td align=&quot;right&quot; style=&quot;font-size:11.0pt;color:black;font-weight:400;&#xa;  text-decoration:none;text-underline-style:none;text-line-through:none;&#xa;  font-family:游ゴシック, sans-serif;mso-font-charset:128;border-top:.5pt solid #8ED973;&#xa;  border-right:none;border-bottom:.5pt solid #8ED973;border-left:none;&#xa;  background:#DAF2D0;mso-pattern:#DAF2D0 none&quot;&gt;66.7&lt;/td&gt;&#xa;  &lt;td align=&quot;right&quot; style=&quot;font-size:11.0pt;color:black;font-weight:400;&#xa;  text-decoration:none;text-underline-style:none;text-line-through:none;&#xa;  font-family:游ゴシック, sans-serif;mso-font-charset:128;border-top:.5pt solid #8ED973;&#xa;  border-right:none;border-bottom:.5pt solid #8ED973;border-left:none;&#xa;  background:#DAF2D0;mso-pattern:#DAF2D0 none&quot;&gt;3&lt;/td&gt;&#xa;  &lt;td align=&quot;right&quot; style=&quot;font-size:11.0pt;color:black;font-weight:400;&#xa;  text-decoration:none;text-underline-style:none;text-line-through:none;&#xa;  font-family:游ゴシック, sans-serif;mso-font-charset:128;border-top:.5pt solid #8ED973;&#xa;  border-right:none;border-bottom:.5pt solid #8ED973;border-left:none;&#xa;  background:#DAF2D0;mso-pattern:#DAF2D0 none&quot;&gt;4.8&lt;/td&gt;&#xa;  &lt;td align=&quot;right&quot; style=&quot;font-size:11.0pt;color:black;font-weight:400;&#xa;  text-decoration:none;text-underline-style:none;text-line-through:none;&#xa;  font-family:游ゴシック, sans-serif;mso-font-charset:128;border-top:.5pt solid #8ED973;&#xa;  border-right:none;border-bottom:.5pt solid #8ED973;border-left:none;&#xa;  background:#DAF2D0;mso-pattern:#DAF2D0 none&quot;&gt;12&lt;/td&gt;&#xa;  &lt;td align=&quot;right&quot; style=&quot;font-size:11.0pt;color:black;font-weight:400;&#xa;  text-decoration:none;text-underline-style:none;text-line-through:none;&#xa;  font-family:游ゴシック, sans-serif;mso-font-charset:128;border-top:.5pt solid #8ED973;&#xa;  border-right:none;border-bottom:.5pt solid #8ED973;border-left:none;&#xa;  background:#DAF2D0;mso-pattern:#DAF2D0 none&quot;&gt;41.7&lt;/td&gt;&#xa;  &lt;td align=&quot;right&quot; style=&quot;font-size:11.0pt;color:black;font-weight:400;&#xa;  text-decoration:none;text-underline-style:none;text-line-through:none;&#xa;  font-family:游ゴシック, sans-serif;mso-font-charset:128;border-top:.5pt solid #8ED973;&#xa;  border-right:none;border-bottom:.5pt solid #8ED973;border-left:none;&#xa;  background:#DAF2D0;mso-pattern:#DAF2D0 none&quot;&gt;4&lt;/td&gt;&#xa;  &lt;td align=&quot;right&quot; style=&quot;font-size:11.0pt;color:black;font-weight:400;&#xa;  text-decoration:none;text-underline-style:none;text-line-through:none;&#xa;  font-family:游ゴシック, sans-serif;mso-font-charset:128;border-top:.5pt solid #8ED973;&#xa;  border-right:.5pt solid #8ED973;border-bottom:.5pt solid #8ED973;border-left:&#xa;  none;background:#DAF2D0;mso-pattern:#DAF2D0 none&quot;&gt;15.3&lt;/td&gt;&#xa; &lt;/tr&gt;&#xa; &lt;tr height=&quot;25&quot; style=&quot;height:18.75pt&quot;&gt;&#xa;  &lt;td height=&quot;25&quot; class=&quot;xl65&quot; align=&quot;right&quot; style=&quot;height:18.75pt;font-size:11.0pt;&#xa;  color:black;font-weight:400;text-decoration:none;text-underline-style:none;&#xa;  text-line-through:none;font-family:游ゴシック, sans-serif;mso-font-charset:128;&#xa;  border-top:.5pt solid #8ED973;border-right:none;border-bottom:.5pt solid #8ED973;&#xa;  border-left:.5pt solid #8ED973&quot;&gt;2024/3/21&lt;/td&gt;&#xa;  &lt;td style=&quot;font-size:11.0pt;color:black;font-weight:400;text-decoration:none;&#xa;  text-underline-style:none;text-line-through:none;font-family:游ゴシック, sans-serif;&#xa;  mso-font-charset:128;border-top:.5pt solid #8ED973;border-right:none;&#xa;  border-bottom:.5pt solid #8ED973;border-left:none&quot;&gt;松山&lt;/td&gt;&#xa;  &lt;td style=&quot;font-size:11.0pt;color:black;font-weight:400;text-decoration:none;&#xa;  text-underline-style:none;text-line-through:none;font-family:游ゴシック, sans-serif;&#xa;  mso-font-charset:128;border-top:.5pt solid #8ED973;border-right:none;&#xa;  border-bottom:.5pt solid #8ED973;border-left:none&quot;&gt;7R&lt;/td&gt;&#xa;  &lt;td style=&quot;font-size:11.0pt;color:black;font-weight:400;text-decoration:none;&#xa;  text-underline-style:none;text-line-through:none;font-family:游ゴシック, sans-serif;&#xa;  mso-font-charset:128;border-top:.5pt solid #8ED973;border-right:none;&#xa;  border-bottom:.5pt solid #8ED973;border-left:none&quot;&gt;1.0 ~ 1.1&lt;/td&gt;&#xa;  &lt;td style=&quot;font-size:11.0pt;color:black;font-weight:400;text-decoration:none;&#xa;  text-underline-style:none;text-line-through:none;font-family:游ゴシック, sans-serif;&#xa;  mso-font-charset:128;border-top:.5pt solid #8ED973;border-right:none;&#xa;  border-bottom:.5pt solid #8ED973;border-left:none&quot;&gt;○&lt;/td&gt;&#xa;  &lt;td align=&quot;right&quot; style=&quot;font-size:11.0pt;color:black;font-weight:400;&#xa;  text-decoration:none;text-underline-style:none;text-line-through:none;&#xa;  font-family:游ゴシック, sans-serif;mso-font-charset:128;border-top:.5pt solid #8ED973;&#xa;  border-right:none;border-bottom:.5pt solid #8ED973;border-left:none&quot;&gt;21&lt;/td&gt;&#xa;  &lt;td align=&quot;right&quot; style=&quot;font-size:11.0pt;color:black;font-weight:400;&#xa;  text-decoration:none;text-underline-style:none;text-line-through:none;&#xa;  font-family:游ゴシック, sans-serif;mso-font-charset:128;border-top:.5pt solid #8ED973;&#xa;  border-right:none;border-bottom:.5pt solid #8ED973;border-left:none&quot;&gt;136&lt;/td&gt;&#xa;  &lt;td align=&quot;right&quot; style=&quot;font-size:11.0pt;color:black;font-weight:400;&#xa;  text-decoration:none;text-underline-style:none;text-line-through:none;&#xa;  font-family:游ゴシック, sans-serif;mso-font-charset:128;border-top:.5pt solid #8ED973;&#xa;  border-right:none;border-bottom:.5pt solid #8ED973;border-left:none&quot;&gt;3&lt;/td&gt;&#xa;  &lt;td align=&quot;right&quot; style=&quot;font-size:11.0pt;color:black;font-weight:400;&#xa;  text-decoration:none;text-underline-style:none;text-line-through:none;&#xa;  font-family:游ゴシック, sans-serif;mso-font-charset:128;border-top:.5pt solid #8ED973;&#xa;  border-right:none;border-bottom:.5pt solid #8ED973;border-left:none&quot;&gt;12.6&lt;/td&gt;&#xa;  &lt;td align=&quot;right&quot; style=&quot;font-size:11.0pt;color:black;font-weight:400;&#xa;  text-decoration:none;text-underline-style:none;text-line-through:none;&#xa;  font-family:游ゴシック, sans-serif;mso-font-charset:128;border-top:.5pt solid #8ED973;&#xa;  border-right:none;border-bottom:.5pt solid #8ED973;border-left:none&quot;&gt;8&lt;/td&gt;&#xa;  &lt;td align=&quot;right&quot; style=&quot;font-size:11.0pt;color:black;font-weight:400;&#xa;  text-decoration:none;text-underline-style:none;text-line-through:none;&#xa;  font-family:游ゴシック, sans-serif;mso-font-charset:128;border-top:.5pt solid #8ED973;&#xa;  border-right:none;border-bottom:.5pt solid #8ED973;border-left:none&quot;&gt;39.4&lt;/td&gt;&#xa;  &lt;td align=&quot;right&quot; style=&quot;font-size:11.0pt;color:black;font-weight:400;&#xa;  text-decoration:none;text-underline-style:none;text-line-through:none;&#xa;  font-family:游ゴシック, sans-serif;mso-font-charset:128;border-top:.5pt solid #8ED973;&#xa;  border-right:none;border-bottom:.5pt solid #8ED973;border-left:none&quot;&gt;7&lt;/td&gt;&#xa;  &lt;td align=&quot;right&quot; style=&quot;font-size:11.0pt;color:black;font-weight:400;&#xa;  text-decoration:none;text-underline-style:none;text-line-through:none;&#xa;  font-family:游ゴシック, sans-serif;mso-font-charset:128;border-top:.5pt solid #8ED973;&#xa;  border-right:.5pt solid #8ED973;border-bottom:.5pt solid #8ED973;border-left:&#xa;  none&quot;&gt;47.4&lt;/td&gt;&#xa; &lt;/tr&gt;&#xa; &lt;tr height=&quot;25&quot; style=&quot;height:18.75pt&quot;&gt;&#xa;  &lt;td height=&quot;25&quot; class=&quot;xl65&quot; align=&quot;right&quot; style=&quot;height:18.75pt;font-size:11.0pt;&#xa;  color:black;font-weight:400;text-decoration:none;text-underline-style:none;&#xa;  text-line-through:none;font-family:游ゴシック, sans-serif;mso-font-charset:128;&#xa;  border-top:.5pt solid #8ED973;border-right:none;border-bottom:.5pt solid #8ED973;&#xa;  border-left:.5pt solid #8ED973;background:#DAF2D0;mso-pattern:#DAF2D0 none&quot;&gt;2024/3/21&lt;/td&gt;&#xa;  &lt;td style=&quot;font-size:11.0pt;color:black;font-weight:400;text-decoration:none;&#xa;  text-underline-style:none;text-line-through:none;font-family:游ゴシック, sans-serif;&#xa;  mso-font-charset:128;border-top:.5pt solid #8ED973;border-right:none;&#xa;  border-bottom:.5pt solid #8ED973;border-left:none;background:#DAF2D0;&#xa;  mso-pattern:#DAF2D0 none&quot;&gt;大垣&lt;/td&gt;&#xa;  &lt;td style=&quot;font-size:11.0pt;color:black;font-weight:400;text-decoration:none;&#xa;  text-underline-style:none;text-line-through:none;font-family:游ゴシック, sans-serif;&#xa;  mso-font-charset:128;border-top:.5pt solid #8ED973;border-right:none;&#xa;  border-bottom:.5pt solid #8ED973;border-left:none;background:#DAF2D0;&#xa;  mso-pattern:#DAF2D0 none&quot;&gt;2R&lt;/td&gt;&#xa;  &lt;td style=&quot;font-size:11.0pt;color:black;font-weight:400;text-decoration:none;&#xa;  text-underline-style:none;text-line-through:none;font-family:游ゴシック, sans-serif;&#xa;  mso-font-charset:128;border-top:.5pt solid #8ED973;border-right:none;&#xa;  border-bottom:.5pt solid #8ED973;border-left:none;background:#DAF2D0;&#xa;  mso-pattern:#DAF2D0 none&quot;&gt;1.0&lt;/td&gt;&#xa;  &lt;td style=&quot;font-size:11.0pt;color:black;font-weight:400;text-decoration:none;&#xa;  text-underline-style:none;text-line-through:none;font-family:游ゴシック, sans-serif;&#xa;  mso-font-charset:128;border-top:.5pt solid #8ED973;border-right:none;&#xa;  border-bottom:.5pt solid #8ED973;border-left:none;background:#DAF2D0;&#xa;  mso-pattern:#DAF2D0 none&quot;&gt;○&lt;/td&gt;&#xa;  &lt;td align=&quot;right&quot; style=&quot;font-size:11.0pt;color:black;font-weight:400;&#xa;  text-decoration:none;text-underline-style:none;text-line-through:none;&#xa;  font-family:游ゴシック, sans-serif;mso-font-charset:128;border-top:.5pt solid #8ED973;&#xa;  border-right:none;border-bottom:.5pt solid #8ED973;border-left:none;&#xa;  background:#DAF2D0;mso-pattern:#DAF2D0 none&quot;&gt;14&lt;/td&gt;&#xa;  &lt;td align=&quot;right&quot; style=&quot;font-size:11.0pt;color:black;font-weight:400;&#xa;  text-decoration:none;text-underline-style:none;text-line-through:none;&#xa;  font-family:游ゴシック, sans-serif;mso-font-charset:128;border-top:.5pt solid #8ED973;&#xa;  border-right:none;border-bottom:.5pt solid #8ED973;border-left:none;&#xa;  background:#DAF2D0;mso-pattern:#DAF2D0 none&quot;&gt;678&lt;/td&gt;&#xa;  &lt;td align=&quot;right&quot; style=&quot;font-size:11.0pt;color:black;font-weight:400;&#xa;  text-decoration:none;text-underline-style:none;text-line-through:none;&#xa;  font-family:游ゴシック, sans-serif;mso-font-charset:128;border-top:.5pt solid #8ED973;&#xa;  border-right:none;border-bottom:.5pt solid #8ED973;border-left:none;&#xa;  background:#DAF2D0;mso-pattern:#DAF2D0 none&quot;&gt;4&lt;/td&gt;&#xa;  &lt;td align=&quot;right&quot; style=&quot;font-size:11.0pt;color:black;font-weight:400;&#xa;  text-decoration:none;text-underline-style:none;text-line-through:none;&#xa;  font-family:游ゴシック, sans-serif;mso-font-charset:128;border-top:.5pt solid #8ED973;&#xa;  border-right:none;border-bottom:.5pt solid #8ED973;border-left:none;&#xa;  background:#DAF2D0;mso-pattern:#DAF2D0 none&quot;&gt;15.4&lt;/td&gt;&#xa;  &lt;td align=&quot;right&quot; style=&quot;font-size:11.0pt;color:black;font-weight:400;&#xa;  text-decoration:none;text-underline-style:none;text-line-through:none;&#xa;  font-family:游ゴシック, sans-serif;mso-font-charset:128;border-top:.5pt solid #8ED973;&#xa;  border-right:none;border-bottom:.5pt solid #8ED973;border-left:none;&#xa;  background:#DAF2D0;mso-pattern:#DAF2D0 none&quot;&gt;2&lt;/td&gt;&#xa;  &lt;td align=&quot;right&quot; style=&quot;font-size:11.0pt;color:black;font-weight:400;&#xa;  text-decoration:none;text-underline-style:none;text-line-through:none;&#xa;  font-family:游ゴシック, sans-serif;mso-font-charset:128;border-top:.5pt solid #8ED973;&#xa;  border-right:none;border-bottom:.5pt solid #8ED973;border-left:none;&#xa;  background:#DAF2D0;mso-pattern:#DAF2D0 none&quot;&gt;4.1&lt;/td&gt;&#xa;  &lt;td align=&quot;right&quot; style=&quot;font-size:11.0pt;color:black;font-weight:400;&#xa;  text-decoration:none;text-underline-style:none;text-line-through:none;&#xa;  font-family:游ゴシック, sans-serif;mso-font-charset:128;border-top:.5pt solid #8ED973;&#xa;  border-right:none;border-bottom:.5pt solid #8ED973;border-left:none;&#xa;  background:#DAF2D0;mso-pattern:#DAF2D0 none&quot;&gt;1&lt;/td&gt;&#xa;  &lt;td align=&quot;right&quot; style=&quot;font-size:11.0pt;color:black;font-weight:400;&#xa;  text-decoration:none;text-underline-style:none;text-line-through:none;&#xa;  font-family:游ゴシック, sans-serif;mso-font-charset:128;border-top:.5pt solid #8ED973;&#xa;  border-right:.5pt solid #8ED973;border-bottom:.5pt solid #8ED973;border-left:&#xa;  none;background:#DAF2D0;mso-pattern:#DAF2D0 none&quot;&gt;1.1&lt;/td&gt;&#xa; &lt;/tr&gt;&#xa; &lt;tr height=&quot;25&quot; style=&quot;height:18.75pt&quot;&gt;&#xa;  &lt;td height=&quot;25&quot; class=&quot;xl65&quot; align=&quot;right&quot; style=&quot;height:18.75pt;font-size:11.0pt;&#xa;  color:black;font-weight:400;text-decoration:none;text-underline-style:none;&#xa;  text-line-through:none;font-family:游ゴシック, sans-serif;mso-font-charset:128;&#xa;  border-top:.5pt solid #8ED973;border-right:none;border-bottom:.5pt solid #8ED973;&#xa;  border-left:.5pt solid #8ED973&quot;&gt;2024/3/23&lt;/td&gt;&#xa;  &lt;td style=&quot;font-size:11.0pt;color:black;font-weight:400;text-decoration:none;&#xa;  text-underline-style:none;text-line-through:none;font-family:游ゴシック, sans-serif;&#xa;  mso-font-charset:128;border-top:.5pt solid #8ED973;border-right:none;&#xa;  border-bottom:.5pt solid #8ED973;border-left:none&quot;&gt;岸和田&lt;/td&gt;&#xa;  &lt;td style=&quot;font-size:11.0pt;color:black;font-weight:400;text-decoration:none;&#xa;  text-underline-style:none;text-line-through:none;font-family:游ゴシック, sans-serif;&#xa;  mso-font-charset:128;border-top:.5pt solid #8ED973;border-right:none;&#xa;  border-bottom:.5pt solid #8ED973;border-left:none&quot;&gt;1R&lt;/td&gt;&#xa;  &lt;td style=&quot;font-size:11.0pt;color:black;font-weight:400;text-decoration:none;&#xa;  text-underline-style:none;text-line-through:none;font-family:游ゴシック, sans-serif;&#xa;  mso-font-charset:128;border-top:.5pt solid #8ED973;border-right:none;&#xa;  border-bottom:.5pt solid #8ED973;border-left:none&quot;&gt;1.0&lt;/td&gt;&#xa;  &lt;td style=&quot;font-size:11.0pt;color:black;font-weight:400;text-decoration:none;&#xa;  text-underline-style:none;text-line-through:none;font-family:游ゴシック, sans-serif;&#xa;  mso-font-charset:128;border-top:.5pt solid #8ED973;border-right:none;&#xa;  border-bottom:.5pt solid #8ED973;border-left:none&quot;&gt;○&lt;/td&gt;&#xa;  &lt;td align=&quot;right&quot; style=&quot;font-size:11.0pt;color:black;font-weight:400;&#xa;  text-decoration:none;text-underline-style:none;text-line-through:none;&#xa;  font-family:游ゴシック, sans-serif;mso-font-charset:128;border-top:.5pt solid #8ED973;&#xa;  border-right:none;border-bottom:.5pt solid #8ED973;border-left:none&quot;&gt;13&lt;/td&gt;&#xa;  &lt;td align=&quot;right&quot; style=&quot;font-size:11.0pt;color:black;font-weight:400;&#xa;  text-decoration:none;text-underline-style:none;text-line-through:none;&#xa;  font-family:游ゴシック, sans-serif;mso-font-charset:128;border-top:.5pt solid #8ED973;&#xa;  border-right:none;border-bottom:.5pt solid #8ED973;border-left:none&quot;&gt;51.7&lt;/td&gt;&#xa;  &lt;td align=&quot;right&quot; style=&quot;font-size:11.0pt;color:black;font-weight:400;&#xa;  text-decoration:none;text-underline-style:none;text-line-through:none;&#xa;  font-family:游ゴシック, sans-serif;mso-font-charset:128;border-top:.5pt solid #8ED973;&#xa;  border-right:none;border-bottom:.5pt solid #8ED973;border-left:none&quot;&gt;4&lt;/td&gt;&#xa;  &lt;td align=&quot;right&quot; style=&quot;font-size:11.0pt;color:black;font-weight:400;&#xa;  text-decoration:none;text-underline-style:none;text-line-through:none;&#xa;  font-family:游ゴシック, sans-serif;mso-font-charset:128;border-top:.5pt solid #8ED973;&#xa;  border-right:none;border-bottom:.5pt solid #8ED973;border-left:none&quot;&gt;14.8&lt;/td&gt;&#xa;  &lt;td align=&quot;right&quot; style=&quot;font-size:11.0pt;color:black;font-weight:400;&#xa;  text-decoration:none;text-underline-style:none;text-line-through:none;&#xa;  font-family:游ゴシック, sans-serif;mso-font-charset:128;border-top:.5pt solid #8ED973;&#xa;  border-right:none;border-bottom:.5pt solid #8ED973;border-left:none&quot;&gt;2&lt;/td&gt;&#xa;  &lt;td align=&quot;right&quot; style=&quot;font-size:11.0pt;color:black;font-weight:400;&#xa;  text-decoration:none;text-underline-style:none;text-line-through:none;&#xa;  font-family:游ゴシック, sans-serif;mso-font-charset:128;border-top:.5pt solid #8ED973;&#xa;  border-right:none;border-bottom:.5pt solid #8ED973;border-left:none&quot;&gt;3.9&lt;/td&gt;&#xa;  &lt;td align=&quot;right&quot; style=&quot;font-size:11.0pt;color:black;font-weight:400;&#xa;  text-decoration:none;text-underline-style:none;text-line-through:none;&#xa;  font-family:游ゴシック, sans-serif;mso-font-charset:128;border-top:.5pt solid #8ED973;&#xa;  border-right:none;border-bottom:.5pt solid #8ED973;border-left:none&quot;&gt;1&lt;/td&gt;&#xa;  &lt;td align=&quot;right&quot; style=&quot;font-size:11.0pt;color:black;font-weight:400;&#xa;  text-decoration:none;text-underline-style:none;text-line-through:none;&#xa;  font-family:游ゴシック, sans-serif;mso-font-charset:128;border-top:.5pt solid #8ED973;&#xa;  border-right:.5pt solid #8ED973;border-bottom:.5pt solid #8ED973;border-left:&#xa;  none&quot;&gt;1.1&lt;/td&gt;&#xa; &lt;/tr&gt;&#xa; &lt;tr height=&quot;25&quot; style=&quot;height:18.75pt&quot;&gt;&#xa;  &lt;td height=&quot;25&quot; class=&quot;xl65&quot; align=&quot;right&quot; style=&quot;height:18.75pt;font-size:11.0pt;&#xa;  color:black;font-weight:400;text-decoration:none;text-underline-style:none;&#xa;  text-line-through:none;font-family:游ゴシック, sans-serif;mso-font-charset:128;&#xa;  border-top:.5pt solid #8ED973;border-right:none;border-bottom:.5pt solid #8ED973;&#xa;  border-left:.5pt solid #8ED973;background:#DAF2D0;mso-pattern:#DAF2D0 none&quot;&gt;2024/3/25&lt;/td&gt;&#xa;  &lt;td style=&quot;font-size:11.0pt;color:black;font-weight:400;text-decoration:none;&#xa;  text-underline-style:none;text-line-through:none;font-family:游ゴシック, sans-serif;&#xa;  mso-font-charset:128;border-top:.5pt solid #8ED973;border-right:none;&#xa;  border-bottom:.5pt solid #8ED973;border-left:none;background:#DAF2D0;&#xa;  mso-pattern:#DAF2D0 none&quot;&gt;岸和田&lt;/td&gt;&#xa;  &lt;td style=&quot;font-size:11.0pt;color:black;font-weight:400;text-decoration:none;&#xa;  text-underline-style:none;text-line-through:none;font-family:游ゴシック, sans-serif;&#xa;  mso-font-charset:128;border-top:.5pt solid #8ED973;border-right:none;&#xa;  border-bottom:.5pt solid #8ED973;border-left:none;background:#DAF2D0;&#xa;  mso-pattern:#DAF2D0 none&quot;&gt;3R&lt;/td&gt;&#xa;  &lt;td style=&quot;font-size:11.0pt;color:black;font-weight:400;text-decoration:none;&#xa;  text-underline-style:none;text-line-through:none;font-family:游ゴシック, sans-serif;&#xa;  mso-font-charset:128;border-top:.5pt solid #8ED973;border-right:none;&#xa;  border-bottom:.5pt solid #8ED973;border-left:none;background:#DAF2D0;&#xa;  mso-pattern:#DAF2D0 none&quot;&gt;1.0&lt;/td&gt;&#xa;  &lt;td style=&quot;font-size:11.0pt;color:black;font-weight:400;text-decoration:none;&#xa;  text-underline-style:none;text-line-through:none;font-family:游ゴシック, sans-serif;&#xa;  mso-font-charset:128;border-top:.5pt solid #8ED973;border-right:none;&#xa;  border-bottom:.5pt solid #8ED973;border-left:none;background:#DAF2D0;&#xa;  mso-pattern:#DAF2D0 none&quot;&gt;○&lt;/td&gt;&#xa;  &lt;td align=&quot;right&quot; style=&quot;font-size:11.0pt;color:black;font-weight:400;&#xa;  text-decoration:none;text-underline-style:none;text-line-through:none;&#xa;  font-family:游ゴシック, sans-serif;mso-font-charset:128;border-top:.5pt solid #8ED973;&#xa;  border-right:none;border-bottom:.5pt solid #8ED973;border-left:none;&#xa;  background:#DAF2D0;mso-pattern:#DAF2D0 none&quot;&gt;2&lt;/td&gt;&#xa;  &lt;td align=&quot;right&quot; style=&quot;font-size:11.0pt;color:black;font-weight:400;&#xa;  text-decoration:none;text-underline-style:none;text-line-through:none;&#xa;  font-family:游ゴシック, sans-serif;mso-font-charset:128;border-top:.5pt solid #8ED973;&#xa;  border-right:none;border-bottom:.5pt solid #8ED973;border-left:none;&#xa;  background:#DAF2D0;mso-pattern:#DAF2D0 none&quot;&gt;4.6&lt;/td&gt;&#xa;  &lt;td align=&quot;right&quot; style=&quot;font-size:11.0pt;color:black;font-weight:400;&#xa;  text-decoration:none;text-underline-style:none;text-line-through:none;&#xa;  font-family:游ゴシック, sans-serif;mso-font-charset:128;border-top:.5pt solid #8ED973;&#xa;  border-right:none;border-bottom:.5pt solid #8ED973;border-left:none;&#xa;  background:#DAF2D0;mso-pattern:#DAF2D0 none&quot;&gt;1&lt;/td&gt;&#xa;  &lt;td align=&quot;right&quot; style=&quot;font-size:11.0pt;color:black;font-weight:400;&#xa;  text-decoration:none;text-underline-style:none;text-line-through:none;&#xa;  font-family:游ゴシック, sans-serif;mso-font-charset:128;border-top:.5pt solid #8ED973;&#xa;  border-right:none;border-bottom:.5pt solid #8ED973;border-left:none;&#xa;  background:#DAF2D0;mso-pattern:#DAF2D0 none&quot;&gt;1.7&lt;/td&gt;&#xa;  &lt;td align=&quot;right&quot; style=&quot;font-size:11.0pt;color:black;font-weight:400;&#xa;  text-decoration:none;text-underline-style:none;text-line-through:none;&#xa;  font-family:游ゴシック, sans-serif;mso-font-charset:128;border-top:.5pt solid #8ED973;&#xa;  border-right:none;border-bottom:.5pt solid #8ED973;border-left:none;&#xa;  background:#DAF2D0;mso-pattern:#DAF2D0 none&quot;&gt;2&lt;/td&gt;&#xa;  &lt;td align=&quot;right&quot; style=&quot;font-size:11.0pt;color:black;font-weight:400;&#xa;  text-decoration:none;text-underline-style:none;text-line-through:none;&#xa;  font-family:游ゴシック, sans-serif;mso-font-charset:128;border-top:.5pt solid #8ED973;&#xa;  border-right:none;border-bottom:.5pt solid #8ED973;border-left:none;&#xa;  background:#DAF2D0;mso-pattern:#DAF2D0 none&quot;&gt;3.1&lt;/td&gt;&#xa;  &lt;td align=&quot;right&quot; style=&quot;font-size:11.0pt;color:black;font-weight:400;&#xa;  text-decoration:none;text-underline-style:none;text-line-through:none;&#xa;  font-family:游ゴシック, sans-serif;mso-font-charset:128;border-top:.5pt solid #8ED973;&#xa;  border-right:none;border-bottom:.5pt solid #8ED973;border-left:none;&#xa;  background:#DAF2D0;mso-pattern:#DAF2D0 none&quot;&gt;1&lt;/td&gt;&#xa;  &lt;td align=&quot;right&quot; style=&quot;font-size:11.0pt;color:black;font-weight:400;&#xa;  text-decoration:none;text-underline-style:none;text-line-through:none;&#xa;  font-family:游ゴシック, sans-serif;mso-font-charset:128;border-top:.5pt solid #8ED973;&#xa;  border-right:.5pt solid #8ED973;border-bottom:.5pt solid #8ED973;border-left:&#xa;  none;background:#DAF2D0;mso-pattern:#DAF2D0 none&quot;&gt;1.1&lt;/td&gt;&#xa; &lt;/tr&gt;&#xa; &lt;tr height=&quot;25&quot; style=&quot;height:18.75pt&quot;&gt;&#xa;  &lt;td height=&quot;25&quot; class=&quot;xl65&quot; align=&quot;right&quot; style=&quot;height:18.75pt;font-size:11.0pt;&#xa;  color:black;font-weight:400;text-decoration:none;text-underline-style:none;&#xa;  text-line-through:none;font-family:游ゴシック, sans-serif;mso-font-charset:128;&#xa;  border-top:.5pt solid #8ED973;border-right:none;border-bottom:.5pt solid #8ED973;&#xa;  border-left:.5pt solid #8ED973&quot;&gt;2024/3/26&lt;/td&gt;&#xa;  &lt;td style=&quot;font-size:11.0pt;color:black;font-weight:400;text-decoration:none;&#xa;  text-underline-style:none;text-line-through:none;font-family:游ゴシック, sans-serif;&#xa;  mso-font-charset:128;border-top:.5pt solid #8ED973;border-right:none;&#xa;  border-bottom:.5pt solid #8ED973;border-left:none&quot;&gt;佐世保&lt;/td&gt;&#xa;  &lt;td style=&quot;font-size:11.0pt;color:black;font-weight:400;text-decoration:none;&#xa;  text-underline-style:none;text-line-through:none;font-family:游ゴシック, sans-serif;&#xa;  mso-font-charset:128;border-top:.5pt solid #8ED973;border-right:none;&#xa;  border-bottom:.5pt solid #8ED973;border-left:none&quot;&gt;3R&lt;/td&gt;&#xa;  &lt;td style=&quot;font-size:11.0pt;color:black;font-weight:400;text-decoration:none;&#xa;  text-underline-style:none;text-line-through:none;font-family:游ゴシック, sans-serif;&#xa;  mso-font-charset:128;border-top:.5pt solid #8ED973;border-right:none;&#xa;  border-bottom:.5pt solid #8ED973;border-left:none&quot;&gt;1.0&lt;/td&gt;&#xa;  &lt;td style=&quot;font-size:11.0pt;color:black;font-weight:400;text-decoration:none;&#xa;  text-underline-style:none;text-line-through:none;font-family:游ゴシック, sans-serif;&#xa;  mso-font-charset:128;border-top:.5pt solid #8ED973;border-right:none;&#xa;  border-bottom:.5pt solid #8ED973;border-left:none&quot;&gt;○&lt;/td&gt;&#xa;  &lt;td align=&quot;right&quot; style=&quot;font-size:11.0pt;color:black;font-weight:400;&#xa;  text-decoration:none;text-underline-style:none;text-line-through:none;&#xa;  font-family:游ゴシック, sans-serif;mso-font-charset:128;border-top:.5pt solid #8ED973;&#xa;  border-right:none;border-bottom:.5pt solid #8ED973;border-left:none&quot;&gt;1&lt;/td&gt;&#xa;  &lt;td align=&quot;right&quot; style=&quot;font-size:11.0pt;color:black;font-weight:400;&#xa;  text-decoration:none;text-underline-style:none;text-line-through:none;&#xa;  font-family:游ゴシック, sans-serif;mso-font-charset:128;border-top:.5pt solid #8ED973;&#xa;  border-right:none;border-bottom:.5pt solid #8ED973;border-left:none&quot;&gt;4.4&lt;/td&gt;&#xa;  &lt;td align=&quot;right&quot; style=&quot;font-size:11.0pt;color:black;font-weight:400;&#xa;  text-decoration:none;text-underline-style:none;text-line-through:none;&#xa;  font-family:游ゴシック, sans-serif;mso-font-charset:128;border-top:.5pt solid #8ED973;&#xa;  border-right:none;border-bottom:.5pt solid #8ED973;border-left:none&quot;&gt;2&lt;/td&gt;&#xa;  &lt;td align=&quot;right&quot; style=&quot;font-size:11.0pt;color:black;font-weight:400;&#xa;  text-decoration:none;text-underline-style:none;text-line-through:none;&#xa;  font-family:游ゴシック, sans-serif;mso-font-charset:128;border-top:.5pt solid #8ED973;&#xa;  border-right:none;border-bottom:.5pt solid #8ED973;border-left:none&quot;&gt;2.8&lt;/td&gt;&#xa;  &lt;td align=&quot;right&quot; style=&quot;font-size:11.0pt;color:black;font-weight:400;&#xa;  text-decoration:none;text-underline-style:none;text-line-through:none;&#xa;  font-family:游ゴシック, sans-serif;mso-font-charset:128;border-top:.5pt solid #8ED973;&#xa;  border-right:none;border-bottom:.5pt solid #8ED973;border-left:none&quot;&gt;1&lt;/td&gt;&#xa;  &lt;td align=&quot;right&quot; style=&quot;font-size:11.0pt;color:black;font-weight:400;&#xa;  text-decoration:none;text-underline-style:none;text-line-through:none;&#xa;  font-family:游ゴシック, sans-serif;mso-font-charset:128;border-top:.5pt solid #8ED973;&#xa;  border-right:none;border-bottom:.5pt solid #8ED973;border-left:none&quot;&gt;1.6&lt;/td&gt;&#xa;  &lt;td align=&quot;right&quot; style=&quot;font-size:11.0pt;color:black;font-weight:400;&#xa;  text-decoration:none;text-underline-style:none;text-line-through:none;&#xa;  font-family:游ゴシック, sans-serif;mso-font-charset:128;border-top:.5pt solid #8ED973;&#xa;  border-right:none;border-bottom:.5pt solid #8ED973;border-left:none&quot;&gt;1&lt;/td&gt;&#xa;  &lt;td align=&quot;right&quot; style=&quot;font-size:11.0pt;color:black;font-weight:400;&#xa;  text-decoration:none;text-underline-style:none;text-line-through:none;&#xa;  font-family:游ゴシック, sans-serif;mso-font-charset:128;border-top:.5pt solid #8ED973;&#xa;  border-right:.5pt solid #8ED973;border-bottom:.5pt solid #8ED973;border-left:&#xa;  none&quot;&gt;1&lt;/td&gt;&#xa; &lt;/tr&gt;&#xa; &lt;tr height=&quot;25&quot; style=&quot;height:18.75pt&quot;&gt;&#xa;  &lt;td height=&quot;25&quot; class=&quot;xl65&quot; align=&quot;right&quot; style=&quot;height:18.75pt;font-size:11.0pt;&#xa;  color:black;font-weight:400;text-decoration:none;text-underline-style:none;&#xa;  text-line-through:none;font-family:游ゴシック, sans-serif;mso-font-charset:128;&#xa;  border-top:.5pt solid #8ED973;border-right:none;border-bottom:.5pt solid #8ED973;&#xa;  border-left:.5pt solid #8ED973;background:#DAF2D0;mso-pattern:#DAF2D0 none&quot;&gt;2024/3/26&lt;/td&gt;&#xa;  &lt;td style=&quot;font-size:11.0pt;color:black;font-weight:400;text-decoration:none;&#xa;  text-underline-style:none;text-line-through:none;font-family:游ゴシック, sans-serif;&#xa;  mso-font-charset:128;border-top:.5pt solid #8ED973;border-right:none;&#xa;  border-bottom:.5pt solid #8ED973;border-left:none;background:#DAF2D0;&#xa;  mso-pattern:#DAF2D0 none&quot;&gt;佐世保&lt;/td&gt;&#xa;  &lt;td style=&quot;font-size:11.0pt;color:black;font-weight:400;text-decoration:none;&#xa;  text-underline-style:none;text-line-through:none;font-family:游ゴシック, sans-serif;&#xa;  mso-font-charset:128;border-top:.5pt solid #8ED973;border-right:none;&#xa;  border-bottom:.5pt solid #8ED973;border-left:none;background:#DAF2D0;&#xa;  mso-pattern:#DAF2D0 none&quot;&gt;4R&lt;/td&gt;&#xa;  &lt;td style=&quot;font-size:11.0pt;color:black;font-weight:400;text-decoration:none;&#xa;  text-underline-style:none;text-line-through:none;font-family:游ゴシック, sans-serif;&#xa;  mso-font-charset:128;border-top:.5pt solid #8ED973;border-right:none;&#xa;  border-bottom:.5pt solid #8ED973;border-left:none;background:#DAF2D0;&#xa;  mso-pattern:#DAF2D0 none&quot;&gt;1.0&lt;/td&gt;&#xa;  &lt;td style=&quot;font-size:11.0pt;color:black;font-weight:400;text-decoration:none;&#xa;  text-underline-style:none;text-line-through:none;font-family:游ゴシック, sans-serif;&#xa;  mso-font-charset:128;border-top:.5pt solid #8ED973;border-right:none;&#xa;  border-bottom:.5pt solid #8ED973;border-left:none;background:#DAF2D0;&#xa;  mso-pattern:#DAF2D0 none&quot;&gt;✕&lt;/td&gt;&#xa;  &lt;td align=&quot;right&quot; style=&quot;font-size:11.0pt;color:black;font-weight:400;&#xa;  text-decoration:none;text-underline-style:none;text-line-through:none;&#xa;  font-family:游ゴシック, sans-serif;mso-font-charset:128;border-top:.5pt solid #8ED973;&#xa;  border-right:none;border-bottom:.5pt solid #8ED973;border-left:none;&#xa;  background:#DAF2D0;mso-pattern:#DAF2D0 none&quot;&gt;101&lt;/td&gt;&#xa;  &lt;td align=&quot;right&quot; style=&quot;font-size:11.0pt;color:black;font-weight:400;&#xa;  text-decoration:none;text-underline-style:none;text-line-through:none;&#xa;  font-family:游ゴシック, sans-serif;mso-font-charset:128;border-top:.5pt solid #8ED973;&#xa;  border-right:none;border-bottom:.5pt solid #8ED973;border-left:none;&#xa;  background:#DAF2D0;mso-pattern:#DAF2D0 none&quot;&gt;1969.7&lt;/td&gt;&#xa;  &lt;td align=&quot;right&quot; style=&quot;font-size:11.0pt;color:black;font-weight:400;&#xa;  text-decoration:none;text-underline-style:none;text-line-through:none;&#xa;  font-family:游ゴシック, sans-serif;mso-font-charset:128;border-top:.5pt solid #8ED973;&#xa;  border-right:none;border-bottom:.5pt solid #8ED973;border-left:none;&#xa;  background:#DAF2D0;mso-pattern:#DAF2D0 none&quot;&gt;20&lt;/td&gt;&#xa;  &lt;td align=&quot;right&quot; style=&quot;font-size:11.0pt;color:black;font-weight:400;&#xa;  text-decoration:none;text-underline-style:none;text-line-through:none;&#xa;  font-family:游ゴシック, sans-serif;mso-font-charset:128;border-top:.5pt solid #8ED973;&#xa;  border-right:none;border-bottom:.5pt solid #8ED973;border-left:none;&#xa;  background:#DAF2D0;mso-pattern:#DAF2D0 none&quot;&gt;187.1&lt;/td&gt;&#xa;  &lt;td align=&quot;right&quot; style=&quot;font-size:11.0pt;color:black;font-weight:400;&#xa;  text-decoration:none;text-underline-style:none;text-line-through:none;&#xa;  font-family:游ゴシック, sans-serif;mso-font-charset:128;border-top:.5pt solid #8ED973;&#xa;  border-right:none;border-bottom:.5pt solid #8ED973;border-left:none;&#xa;  background:#DAF2D0;mso-pattern:#DAF2D0 none&quot;&gt;20&lt;/td&gt;&#xa;  &lt;td align=&quot;right&quot; style=&quot;font-size:11.0pt;color:black;font-weight:400;&#xa;  text-decoration:none;text-underline-style:none;text-line-through:none;&#xa;  font-family:游ゴシック, sans-serif;mso-font-charset:128;border-top:.5pt solid #8ED973;&#xa;  border-right:none;border-bottom:.5pt solid #8ED973;border-left:none;&#xa;  background:#DAF2D0;mso-pattern:#DAF2D0 none&quot;&gt;240.3&lt;/td&gt;&#xa;  &lt;td align=&quot;right&quot; style=&quot;font-size:11.0pt;color:black;font-weight:400;&#xa;  text-decoration:none;text-underline-style:none;text-line-through:none;&#xa;  font-family:游ゴシック, sans-serif;mso-font-charset:128;border-top:.5pt solid #8ED973;&#xa;  border-right:none;border-bottom:.5pt solid #8ED973;border-left:none;&#xa;  background:#DAF2D0;mso-pattern:#DAF2D0 none&quot;&gt;9&lt;/td&gt;&#xa;  &lt;td align=&quot;right&quot; style=&quot;font-size:11.0pt;color:black;font-weight:400;&#xa;  text-decoration:none;text-underline-style:none;text-line-through:none;&#xa;  font-family:游ゴシック, sans-serif;mso-font-charset:128;border-top:.5pt solid #8ED973;&#xa;  border-right:.5pt solid #8ED973;border-bottom:.5pt solid #8ED973;border-left:&#xa;  none;background:#DAF2D0;mso-pattern:#DAF2D0 none&quot;&gt;75.3&lt;/td&gt;&#xa; &lt;/tr&gt;&#xa; &lt;tr height=&quot;25&quot; style=&quot;height:18.75pt&quot;&gt;&#xa;  &lt;td height=&quot;25&quot; class=&quot;xl65&quot; align=&quot;right&quot; style=&quot;height:18.75pt;font-size:11.0pt;&#xa;  color:black;font-weight:400;text-decoration:none;text-underline-style:none;&#xa;  text-line-through:none;font-family:游ゴシック, sans-serif;mso-font-charset:128;&#xa;  border-top:.5pt solid #8ED973;border-right:none;border-bottom:.5pt solid #8ED973;&#xa;  border-left:.5pt solid #8ED973&quot;&gt;2024/3/26&lt;/td&gt;&#xa;  &lt;td style=&quot;font-size:11.0pt;color:black;font-weight:400;text-decoration:none;&#xa;  text-underline-style:none;text-line-through:none;font-family:游ゴシック, sans-serif;&#xa;  mso-font-charset:128;border-top:.5pt solid #8ED973;border-right:none;&#xa;  border-bottom:.5pt solid #8ED973;border-left:none&quot;&gt;佐世保&lt;/td&gt;&#xa;  &lt;td style=&quot;font-size:11.0pt;color:black;font-weight:400;text-decoration:none;&#xa;  text-underline-style:none;text-line-through:none;font-family:游ゴシック, sans-serif;&#xa;  mso-font-charset:128;border-top:.5pt solid #8ED973;border-right:none;&#xa;  border-bottom:.5pt solid #8ED973;border-left:none&quot;&gt;7R&lt;/td&gt;&#xa;  &lt;td style=&quot;font-size:11.0pt;color:black;font-weight:400;text-decoration:none;&#xa;  text-underline-style:none;text-line-through:none;font-family:游ゴシック, sans-serif;&#xa;  mso-font-charset:128;border-top:.5pt solid #8ED973;border-right:none;&#xa;  border-bottom:.5pt solid #8ED973;border-left:none&quot;&gt;1.0&lt;/td&gt;&#xa;  &lt;td style=&quot;font-size:11.0pt;color:black;font-weight:400;text-decoration:none;&#xa;  text-underline-style:none;text-line-through:none;font-family:游ゴシック, sans-serif;&#xa;  mso-font-charset:128;border-top:.5pt solid #8ED973;border-right:none;&#xa;  border-bottom:.5pt solid #8ED973;border-left:none&quot;&gt;○&lt;/td&gt;&#xa;  &lt;td align=&quot;right&quot; style=&quot;font-size:11.0pt;color:black;font-weight:400;&#xa;  text-decoration:none;text-underline-style:none;text-line-through:none;&#xa;  font-family:游ゴシック, sans-serif;mso-font-charset:128;border-top:.5pt solid #8ED973;&#xa;  border-right:none;border-bottom:.5pt solid #8ED973;border-left:none&quot;&gt;6&lt;/td&gt;&#xa;  &lt;td align=&quot;right&quot; style=&quot;font-size:11.0pt;color:black;font-weight:400;&#xa;  text-decoration:none;text-underline-style:none;text-line-through:none;&#xa;  font-family:游ゴシック, sans-serif;mso-font-charset:128;border-top:.5pt solid #8ED973;&#xa;  border-right:none;border-bottom:.5pt solid #8ED973;border-left:none&quot;&gt;15.9&lt;/td&gt;&#xa;  &lt;td align=&quot;right&quot; style=&quot;font-size:11.0pt;color:black;font-weight:400;&#xa;  text-decoration:none;text-underline-style:none;text-line-through:none;&#xa;  font-family:游ゴシック, sans-serif;mso-font-charset:128;border-top:.5pt solid #8ED973;&#xa;  border-right:none;border-bottom:.5pt solid #8ED973;border-left:none&quot;&gt;4&lt;/td&gt;&#xa;  &lt;td align=&quot;right&quot; style=&quot;font-size:11.0pt;color:black;font-weight:400;&#xa;  text-decoration:none;text-underline-style:none;text-line-through:none;&#xa;  font-family:游ゴシック, sans-serif;mso-font-charset:128;border-top:.5pt solid #8ED973;&#xa;  border-right:none;border-bottom:.5pt solid #8ED973;border-left:none&quot;&gt;8.3&lt;/td&gt;&#xa;  &lt;td align=&quot;right&quot; style=&quot;font-size:11.0pt;color:black;font-weight:400;&#xa;  text-decoration:none;text-underline-style:none;text-line-through:none;&#xa;  font-family:游ゴシック, sans-serif;mso-font-charset:128;border-top:.5pt solid #8ED973;&#xa;  border-right:none;border-bottom:.5pt solid #8ED973;border-left:none&quot;&gt;1&lt;/td&gt;&#xa;  &lt;td align=&quot;right&quot; style=&quot;font-size:11.0pt;color:black;font-weight:400;&#xa;  text-decoration:none;text-underline-style:none;text-line-through:none;&#xa;  font-family:游ゴシック, sans-serif;mso-font-charset:128;border-top:.5pt solid #8ED973;&#xa;  border-right:none;border-bottom:.5pt solid #8ED973;border-left:none&quot;&gt;1.5&lt;/td&gt;&#xa;  &lt;td align=&quot;right&quot; style=&quot;font-size:11.0pt;color:black;font-weight:400;&#xa;  text-decoration:none;text-underline-style:none;text-line-through:none;&#xa;  font-family:游ゴシック, sans-serif;mso-font-charset:128;border-top:.5pt solid #8ED973;&#xa;  border-right:none;border-bottom:.5pt solid #8ED973;border-left:none&quot;&gt;1&lt;/td&gt;&#xa;  &lt;td align=&quot;right&quot; style=&quot;font-size:11.0pt;color:black;font-weight:400;&#xa;  text-decoration:none;text-underline-style:none;text-line-through:none;&#xa;  font-family:游ゴシック, sans-serif;mso-font-charset:128;border-top:.5pt solid #8ED973;&#xa;  border-right:.5pt solid #8ED973;border-bottom:.5pt solid #8ED973;border-left:&#xa;  none&quot;&gt;1.1&lt;/td&gt;&#xa; &lt;/tr&gt;&#xa; &lt;tr height=&quot;25&quot; style=&quot;height:18.75pt&quot;&gt;&#xa;  &lt;td height=&quot;25&quot; class=&quot;xl65&quot; align=&quot;right&quot; style=&quot;height:18.75pt;font-size:11.0pt;&#xa;  color:black;font-weight:400;text-decoration:none;text-underline-style:none;&#xa;  text-line-through:none;font-family:游ゴシック, sans-serif;mso-font-charset:128;&#xa;  border-top:.5pt solid #8ED973;border-right:none;border-bottom:.5pt solid #8ED973;&#xa;  border-left:.5pt solid #8ED973;background:#DAF2D0;mso-pattern:#DAF2D0 none&quot;&gt;2024/3/28&lt;/td&gt;&#xa;  &lt;td style=&quot;font-size:11.0pt;color:black;font-weight:400;text-decoration:none;&#xa;  text-underline-style:none;text-line-through:none;font-family:游ゴシック, sans-serif;&#xa;  mso-font-charset:128;border-top:.5pt solid #8ED973;border-right:none;&#xa;  border-bottom:.5pt solid #8ED973;border-left:none;background:#DAF2D0;&#xa;  mso-pattern:#DAF2D0 none&quot;&gt;佐世保&lt;/td&gt;&#xa;  &lt;td style=&quot;font-size:11.0pt;color:black;font-weight:400;text-decoration:none;&#xa;  text-underline-style:none;text-line-through:none;font-family:游ゴシック, sans-serif;&#xa;  mso-font-charset:128;border-top:.5pt solid #8ED973;border-right:none;&#xa;  border-bottom:.5pt solid #8ED973;border-left:none;background:#DAF2D0;&#xa;  mso-pattern:#DAF2D0 none&quot;&gt;3R&lt;/td&gt;&#xa;  &lt;td style=&quot;font-size:11.0pt;color:black;font-weight:400;text-decoration:none;&#xa;  text-underline-style:none;text-line-through:none;font-family:游ゴシック, sans-serif;&#xa;  mso-font-charset:128;border-top:.5pt solid #8ED973;border-right:none;&#xa;  border-bottom:.5pt solid #8ED973;border-left:none;background:#DAF2D0;&#xa;  mso-pattern:#DAF2D0 none&quot;&gt;1.0&lt;/td&gt;&#xa;  &lt;td style=&quot;font-size:11.0pt;color:black;font-weight:400;text-decoration:none;&#xa;  text-underline-style:none;text-line-through:none;font-family:游ゴシック, sans-serif;&#xa;  mso-font-charset:128;border-top:.5pt solid #8ED973;border-right:none;&#xa;  border-bottom:.5pt solid #8ED973;border-left:none;background:#DAF2D0;&#xa;  mso-pattern:#DAF2D0 none&quot;&gt;○&lt;/td&gt;&#xa;  &lt;td align=&quot;right&quot; style=&quot;font-size:11.0pt;color:black;font-weight:400;&#xa;  text-decoration:none;text-underline-style:none;text-line-through:none;&#xa;  font-family:游ゴシック, sans-serif;mso-font-charset:128;border-top:.5pt solid #8ED973;&#xa;  border-right:none;border-bottom:.5pt solid #8ED973;border-left:none;&#xa;  background:#DAF2D0;mso-pattern:#DAF2D0 none&quot;&gt;2&lt;/td&gt;&#xa;  &lt;td align=&quot;right&quot; style=&quot;font-size:11.0pt;color:black;font-weight:400;&#xa;  text-decoration:none;text-underline-style:none;text-line-through:none;&#xa;  font-family:游ゴシック, sans-serif;mso-font-charset:128;border-top:.5pt solid #8ED973;&#xa;  border-right:none;border-bottom:.5pt solid #8ED973;border-left:none;&#xa;  background:#DAF2D0;mso-pattern:#DAF2D0 none&quot;&gt;3.6&lt;/td&gt;&#xa;  &lt;td align=&quot;right&quot; style=&quot;font-size:11.0pt;color:black;font-weight:400;&#xa;  text-decoration:none;text-underline-style:none;text-line-through:none;&#xa;  font-family:游ゴシック, sans-serif;mso-font-charset:128;border-top:.5pt solid #8ED973;&#xa;  border-right:none;border-bottom:.5pt solid #8ED973;border-left:none;&#xa;  background:#DAF2D0;mso-pattern:#DAF2D0 none&quot;&gt;1&lt;/td&gt;&#xa;  &lt;td align=&quot;right&quot; style=&quot;font-size:11.0pt;color:black;font-weight:400;&#xa;  text-decoration:none;text-underline-style:none;text-line-through:none;&#xa;  font-family:游ゴシック, sans-serif;mso-font-charset:128;border-top:.5pt solid #8ED973;&#xa;  border-right:none;border-bottom:.5pt solid #8ED973;border-left:none;&#xa;  background:#DAF2D0;mso-pattern:#DAF2D0 none&quot;&gt;1.8&lt;/td&gt;&#xa;  &lt;td align=&quot;right&quot; style=&quot;font-size:11.0pt;color:black;font-weight:400;&#xa;  text-decoration:none;text-underline-style:none;text-line-through:none;&#xa;  font-family:游ゴシック, sans-serif;mso-font-charset:128;border-top:.5pt solid #8ED973;&#xa;  border-right:none;border-bottom:.5pt solid #8ED973;border-left:none;&#xa;  background:#DAF2D0;mso-pattern:#DAF2D0 none&quot;&gt;2&lt;/td&gt;&#xa;  &lt;td align=&quot;right&quot; style=&quot;font-size:11.0pt;color:black;font-weight:400;&#xa;  text-decoration:none;text-underline-style:none;text-line-through:none;&#xa;  font-family:游ゴシック, sans-serif;mso-font-charset:128;border-top:.5pt solid #8ED973;&#xa;  border-right:none;border-bottom:.5pt solid #8ED973;border-left:none;&#xa;  background:#DAF2D0;mso-pattern:#DAF2D0 none&quot;&gt;2.8&lt;/td&gt;&#xa;  &lt;td align=&quot;right&quot; style=&quot;font-size:11.0pt;color:black;font-weight:400;&#xa;  text-decoration:none;text-underline-style:none;text-line-through:none;&#xa;  font-family:游ゴシック, sans-serif;mso-font-charset:128;border-top:.5pt solid #8ED973;&#xa;  border-right:none;border-bottom:.5pt solid #8ED973;border-left:none;&#xa;  background:#DAF2D0;mso-pattern:#DAF2D0 none&quot;&gt;1&lt;/td&gt;&#xa;  &lt;td align=&quot;right&quot; style=&quot;font-size:11.0pt;color:black;font-weight:400;&#xa;  text-decoration:none;text-underline-style:none;text-line-through:none;&#xa;  font-family:游ゴシック, sans-serif;mso-font-charset:128;border-top:.5pt solid #8ED973;&#xa;  border-right:.5pt solid #8ED973;border-bottom:.5pt solid #8ED973;border-left:&#xa;  none;background:#DAF2D0;mso-pattern:#DAF2D0 none&quot;&gt;1.4&lt;/td&gt;&#xa; &lt;/tr&gt;&#xa; &lt;tr height=&quot;25&quot; style=&quot;height:18.75pt&quot;&gt;&#xa;  &lt;td height=&quot;25&quot; class=&quot;xl65&quot; align=&quot;right&quot; style=&quot;height:18.75pt;font-size:11.0pt;&#xa;  color:black;font-weight:400;text-decoration:none;text-underline-style:none;&#xa;  text-line-through:none;font-family:游ゴシック, sans-serif;mso-font-charset:128;&#xa;  border-top:.5pt solid #8ED973;border-right:none;border-bottom:.5pt solid #8ED973;&#xa;  border-left:.5pt solid #8ED973&quot;&gt;2024/3/29&lt;/td&gt;&#xa;  &lt;td style=&quot;font-size:11.0pt;color:black;font-weight:400;text-decoration:none;&#xa;  text-underline-style:none;text-line-through:none;font-family:游ゴシック, sans-serif;&#xa;  mso-font-charset:128;border-top:.5pt solid #8ED973;border-right:none;&#xa;  border-bottom:.5pt solid #8ED973;border-left:none&quot;&gt;小松島&lt;/td&gt;&#xa;  &lt;td style=&quot;font-size:11.0pt;color:black;font-weight:400;text-decoration:none;&#xa;  text-underline-style:none;text-line-through:none;font-family:游ゴシック, sans-serif;&#xa;  mso-font-charset:128;border-top:.5pt solid #8ED973;border-right:none;&#xa;  border-bottom:.5pt solid #8ED973;border-left:none&quot;&gt;3R&lt;/td&gt;&#xa;  &lt;td style=&quot;font-size:11.0pt;color:black;font-weight:400;text-decoration:none;&#xa;  text-underline-style:none;text-line-through:none;font-family:游ゴシック, sans-serif;&#xa;  mso-font-charset:128;border-top:.5pt solid #8ED973;border-right:none;&#xa;  border-bottom:.5pt solid #8ED973;border-left:none&quot;&gt;1.0&lt;/td&gt;&#xa;  &lt;td style=&quot;font-size:11.0pt;color:black;font-weight:400;text-decoration:none;&#xa;  text-underline-style:none;text-line-through:none;font-family:游ゴシック, sans-serif;&#xa;  mso-font-charset:128;border-top:.5pt solid #8ED973;border-right:none;&#xa;  border-bottom:.5pt solid #8ED973;border-left:none&quot;&gt;○&lt;/td&gt;&#xa;  &lt;td align=&quot;right&quot; style=&quot;font-size:11.0pt;color:black;font-weight:400;&#xa;  text-decoration:none;text-underline-style:none;text-line-through:none;&#xa;  font-family:游ゴシック, sans-serif;mso-font-charset:128;border-top:.5pt solid #8ED973;&#xa;  border-right:none;border-bottom:.5pt solid #8ED973;border-left:none&quot;&gt;4&lt;/td&gt;&#xa;  &lt;td align=&quot;right&quot; style=&quot;font-size:11.0pt;color:black;font-weight:400;&#xa;  text-decoration:none;text-underline-style:none;text-line-through:none;&#xa;  font-family:游ゴシック, sans-serif;mso-font-charset:128;border-top:.5pt solid #8ED973;&#xa;  border-right:none;border-bottom:.5pt solid #8ED973;border-left:none&quot;&gt;9.6&lt;/td&gt;&#xa;  &lt;td align=&quot;right&quot; style=&quot;font-size:11.0pt;color:black;font-weight:400;&#xa;  text-decoration:none;text-underline-style:none;text-line-through:none;&#xa;  font-family:游ゴシック, sans-serif;mso-font-charset:128;border-top:.5pt solid #8ED973;&#xa;  border-right:none;border-bottom:.5pt solid #8ED973;border-left:none&quot;&gt;2&lt;/td&gt;&#xa;  &lt;td align=&quot;right&quot; style=&quot;font-size:11.0pt;color:black;font-weight:400;&#xa;  text-decoration:none;text-underline-style:none;text-line-through:none;&#xa;  font-family:游ゴシック, sans-serif;mso-font-charset:128;border-top:.5pt solid #8ED973;&#xa;  border-right:none;border-bottom:.5pt solid #8ED973;border-left:none&quot;&gt;3.3&lt;/td&gt;&#xa;  &lt;td align=&quot;right&quot; style=&quot;font-size:11.0pt;color:black;font-weight:400;&#xa;  text-decoration:none;text-underline-style:none;text-line-through:none;&#xa;  font-family:游ゴシック, sans-serif;mso-font-charset:128;border-top:.5pt solid #8ED973;&#xa;  border-right:none;border-bottom:.5pt solid #8ED973;border-left:none&quot;&gt;2&lt;/td&gt;&#xa;  &lt;td align=&quot;right&quot; style=&quot;font-size:11.0pt;color:black;font-weight:400;&#xa;  text-decoration:none;text-underline-style:none;text-line-through:none;&#xa;  font-family:游ゴシック, sans-serif;mso-font-charset:128;border-top:.5pt solid #8ED973;&#xa;  border-right:none;border-bottom:.5pt solid #8ED973;border-left:none&quot;&gt;3.5&lt;/td&gt;&#xa;  &lt;td align=&quot;right&quot; style=&quot;font-size:11.0pt;color:black;font-weight:400;&#xa;  text-decoration:none;text-underline-style:none;text-line-through:none;&#xa;  font-family:游ゴシック, sans-serif;mso-font-charset:128;border-top:.5pt solid #8ED973;&#xa;  border-right:none;border-bottom:.5pt solid #8ED973;border-left:none&quot;&gt;1&lt;/td&gt;&#xa;  &lt;td align=&quot;right&quot; style=&quot;font-size:11.0pt;color:black;font-weight:400;&#xa;  text-decoration:none;text-underline-style:none;text-line-through:none;&#xa;  font-family:游ゴシック, sans-serif;mso-font-charset:128;border-top:.5pt solid #8ED973;&#xa;  border-right:.5pt solid #8ED973;border-bottom:.5pt solid #8ED973;border-left:&#xa;  none&quot;&gt;1&lt;/td&gt;&#xa; &lt;/tr&gt;&#xa; &lt;tr height=&quot;25&quot; style=&quot;height:18.75pt&quot;&gt;&#xa;  &lt;td height=&quot;25&quot; class=&quot;xl65&quot; align=&quot;right&quot; style=&quot;height:18.75pt;font-size:11.0pt;&#xa;  color:black;font-weight:400;text-decoration:none;text-underline-style:none;&#xa;  text-line-through:none;font-family:游ゴシック, sans-serif;mso-font-charset:128;&#xa;  border-top:.5pt solid #8ED973;border-right:none;border-bottom:.5pt solid #8ED973;&#xa;  border-left:.5pt solid #8ED973;background:#DAF2D0;mso-pattern:#DAF2D0 none&quot;&gt;2024/3/29&lt;/td&gt;&#xa;  &lt;td style=&quot;font-size:11.0pt;color:black;font-weight:400;text-decoration:none;&#xa;  text-underline-style:none;text-line-through:none;font-family:游ゴシック, sans-serif;&#xa;  mso-font-charset:128;border-top:.5pt solid #8ED973;border-right:none;&#xa;  border-bottom:.5pt solid #8ED973;border-left:none;background:#DAF2D0;&#xa;  mso-pattern:#DAF2D0 none&quot;&gt;小松島&lt;/td&gt;&#xa;  &lt;td style=&quot;font-size:11.0pt;color:black;font-weight:400;text-decoration:none;&#xa;  text-underline-style:none;text-line-through:none;font-family:游ゴシック, sans-serif;&#xa;  mso-font-charset:128;border-top:.5pt solid #8ED973;border-right:none;&#xa;  border-bottom:.5pt solid #8ED973;border-left:none;background:#DAF2D0;&#xa;  mso-pattern:#DAF2D0 none&quot;&gt;3R&lt;/td&gt;&#xa;  &lt;td style=&quot;font-size:11.0pt;color:black;font-weight:400;text-decoration:none;&#xa;  text-underline-style:none;text-line-through:none;font-family:游ゴシック, sans-serif;&#xa;  mso-font-charset:128;border-top:.5pt solid #8ED973;border-right:none;&#xa;  border-bottom:.5pt solid #8ED973;border-left:none;background:#DAF2D0;&#xa;  mso-pattern:#DAF2D0 none&quot;&gt;1.0&lt;/td&gt;&#xa;  &lt;td style=&quot;font-size:11.0pt;color:black;font-weight:400;text-decoration:none;&#xa;  text-underline-style:none;text-line-through:none;font-family:游ゴシック, sans-serif;&#xa;  mso-font-charset:128;border-top:.5pt solid #8ED973;border-right:none;&#xa;  border-bottom:.5pt solid #8ED973;border-left:none;background:#DAF2D0;&#xa;  mso-pattern:#DAF2D0 none&quot;&gt;○&lt;/td&gt;&#xa;  &lt;td align=&quot;right&quot; style=&quot;font-size:11.0pt;color:black;font-weight:400;&#xa;  text-decoration:none;text-underline-style:none;text-line-through:none;&#xa;  font-family:游ゴシック, sans-serif;mso-font-charset:128;border-top:.5pt solid #8ED973;&#xa;  border-right:none;border-bottom:.5pt solid #8ED973;border-left:none;&#xa;  background:#DAF2D0;mso-pattern:#DAF2D0 none&quot;&gt;1&lt;/td&gt;&#xa;  &lt;td align=&quot;right&quot; style=&quot;font-size:11.0pt;color:black;font-weight:400;&#xa;  text-decoration:none;text-underline-style:none;text-line-through:none;&#xa;  font-family:游ゴシック, sans-serif;mso-font-charset:128;border-top:.5pt solid #8ED973;&#xa;  border-right:none;border-bottom:.5pt solid #8ED973;border-left:none;&#xa;  background:#DAF2D0;mso-pattern:#DAF2D0 none&quot;&gt;2.2&lt;/td&gt;&#xa;  &lt;td align=&quot;right&quot; style=&quot;font-size:11.0pt;color:black;font-weight:400;&#xa;  text-decoration:none;text-underline-style:none;text-line-through:none;&#xa;  font-family:游ゴシック, sans-serif;mso-font-charset:128;border-top:.5pt solid #8ED973;&#xa;  border-right:none;border-bottom:.5pt solid #8ED973;border-left:none;&#xa;  background:#DAF2D0;mso-pattern:#DAF2D0 none&quot;&gt;1&lt;/td&gt;&#xa;  &lt;td align=&quot;right&quot; style=&quot;font-size:11.0pt;color:black;font-weight:400;&#xa;  text-decoration:none;text-underline-style:none;text-line-through:none;&#xa;  font-family:游ゴシック, sans-serif;mso-font-charset:128;border-top:.5pt solid #8ED973;&#xa;  border-right:none;border-bottom:.5pt solid #8ED973;border-left:none;&#xa;  background:#DAF2D0;mso-pattern:#DAF2D0 none&quot;&gt;1.2&lt;/td&gt;&#xa;  &lt;td align=&quot;right&quot; style=&quot;font-size:11.0pt;color:black;font-weight:400;&#xa;  text-decoration:none;text-underline-style:none;text-line-through:none;&#xa;  font-family:游ゴシック, sans-serif;mso-font-charset:128;border-top:.5pt solid #8ED973;&#xa;  border-right:none;border-bottom:.5pt solid #8ED973;border-left:none;&#xa;  background:#DAF2D0;mso-pattern:#DAF2D0 none&quot;&gt;1&lt;/td&gt;&#xa;  &lt;td align=&quot;right&quot; style=&quot;font-size:11.0pt;color:black;font-weight:400;&#xa;  text-decoration:none;text-underline-style:none;text-line-through:none;&#xa;  font-family:游ゴシック, sans-serif;mso-font-charset:128;border-top:.5pt solid #8ED973;&#xa;  border-right:none;border-bottom:.5pt solid #8ED973;border-left:none;&#xa;  background:#DAF2D0;mso-pattern:#DAF2D0 none&quot;&gt;1.6&lt;/td&gt;&#xa;  &lt;td align=&quot;right&quot; style=&quot;font-size:11.0pt;color:black;font-weight:400;&#xa;  text-decoration:none;text-underline-style:none;text-line-through:none;&#xa;  font-family:游ゴシック, sans-serif;mso-font-charset:128;border-top:.5pt solid #8ED973;&#xa;  border-right:none;border-bottom:.5pt solid #8ED973;border-left:none;&#xa;  background:#DAF2D0;mso-pattern:#DAF2D0 none&quot;&gt;1&lt;/td&gt;&#xa;  &lt;td align=&quot;right&quot; style=&quot;font-size:11.0pt;color:black;font-weight:400;&#xa;  text-decoration:none;text-underline-style:none;text-line-through:none;&#xa;  font-family:游ゴシック, sans-serif;mso-font-charset:128;border-top:.5pt solid #8ED973;&#xa;  border-right:.5pt solid #8ED973;border-bottom:.5pt solid #8ED973;border-left:&#xa;  none;background:#DAF2D0;mso-pattern:#DAF2D0 none&quot;&gt;1.1&lt;/td&gt;&#xa; &lt;/tr&gt;&#xa; &lt;tr height=&quot;25&quot; style=&quot;height:18.75pt&quot;&gt;&#xa;  &lt;td height=&quot;25&quot; class=&quot;xl65&quot; align=&quot;right&quot; style=&quot;height:18.75pt;font-size:11.0pt;&#xa;  color:black;font-weight:400;text-decoration:none;text-underline-style:none;&#xa;  text-line-through:none;font-family:游ゴシック, sans-serif;mso-font-charset:128;&#xa;  border-top:.5pt solid #8ED973;border-right:none;border-bottom:.5pt solid #8ED973;&#xa;  border-left:.5pt solid #8ED973&quot;&gt;2024/3/30&lt;/td&gt;&#xa;  &lt;td style=&quot;font-size:11.0pt;color:black;font-weight:400;text-decoration:none;&#xa;  text-underline-style:none;text-line-through:none;font-family:游ゴシック, sans-serif;&#xa;  mso-font-charset:128;border-top:.5pt solid #8ED973;border-right:none;&#xa;  border-bottom:.5pt solid #8ED973;border-left:none&quot;&gt;小松島&lt;/td&gt;&#xa;  &lt;td style=&quot;font-size:11.0pt;color:black;font-weight:400;text-decoration:none;&#xa;  text-underline-style:none;text-line-through:none;font-family:游ゴシック, sans-serif;&#xa;  mso-font-charset:128;border-top:.5pt solid #8ED973;border-right:none;&#xa;  border-bottom:.5pt solid #8ED973;border-left:none&quot;&gt;2R&lt;/td&gt;&#xa;  &lt;td style=&quot;font-size:11.0pt;color:black;font-weight:400;text-decoration:none;&#xa;  text-underline-style:none;text-line-through:none;font-family:游ゴシック, sans-serif;&#xa;  mso-font-charset:128;border-top:.5pt solid #8ED973;border-right:none;&#xa;  border-bottom:.5pt solid #8ED973;border-left:none&quot;&gt;1.0&lt;/td&gt;&#xa;  &lt;td style=&quot;font-size:11.0pt;color:black;font-weight:400;text-decoration:none;&#xa;  text-underline-style:none;text-line-through:none;font-family:游ゴシック, sans-serif;&#xa;  mso-font-charset:128;border-top:.5pt solid #8ED973;border-right:none;&#xa;  border-bottom:.5pt solid #8ED973;border-left:none&quot;&gt;✕&lt;/td&gt;&#xa;  &lt;td align=&quot;right&quot; style=&quot;font-size:11.0pt;color:black;font-weight:400;&#xa;  text-decoration:none;text-underline-style:none;text-line-through:none;&#xa;  font-family:游ゴシック, sans-serif;mso-font-charset:128;border-top:.5pt solid #8ED973;&#xa;  border-right:none;border-bottom:.5pt solid #8ED973;border-left:none&quot;&gt;16&lt;/td&gt;&#xa;  &lt;td align=&quot;right&quot; style=&quot;font-size:11.0pt;color:black;font-weight:400;&#xa;  text-decoration:none;text-underline-style:none;text-line-through:none;&#xa;  font-family:游ゴシック, sans-serif;mso-font-charset:128;border-top:.5pt solid #8ED973;&#xa;  border-right:none;border-bottom:.5pt solid #8ED973;border-left:none&quot;&gt;93.1&lt;/td&gt;&#xa;  &lt;td align=&quot;right&quot; style=&quot;font-size:11.0pt;color:black;font-weight:400;&#xa;  text-decoration:none;text-underline-style:none;text-line-through:none;&#xa;  font-family:游ゴシック, sans-serif;mso-font-charset:128;border-top:.5pt solid #8ED973;&#xa;  border-right:none;border-bottom:.5pt solid #8ED973;border-left:none&quot;&gt;8&lt;/td&gt;&#xa;  &lt;td align=&quot;right&quot; style=&quot;font-size:11.0pt;color:black;font-weight:400;&#xa;  text-decoration:none;text-underline-style:none;text-line-through:none;&#xa;  font-family:游ゴシック, sans-serif;mso-font-charset:128;border-top:.5pt solid #8ED973;&#xa;  border-right:none;border-bottom:.5pt solid #8ED973;border-left:none&quot;&gt;65.3&lt;/td&gt;&#xa;  &lt;td align=&quot;right&quot; style=&quot;font-size:11.0pt;color:black;font-weight:400;&#xa;  text-decoration:none;text-underline-style:none;text-line-through:none;&#xa;  font-family:游ゴシック, sans-serif;mso-font-charset:128;border-top:.5pt solid #8ED973;&#xa;  border-right:none;border-bottom:.5pt solid #8ED973;border-left:none&quot;&gt;3&lt;/td&gt;&#xa;  &lt;td align=&quot;right&quot; style=&quot;font-size:11.0pt;color:black;font-weight:400;&#xa;  text-decoration:none;text-underline-style:none;text-line-through:none;&#xa;  font-family:游ゴシック, sans-serif;mso-font-charset:128;border-top:.5pt solid #8ED973;&#xa;  border-right:none;border-bottom:.5pt solid #8ED973;border-left:none&quot;&gt;8&lt;/td&gt;&#xa;  &lt;td align=&quot;right&quot; style=&quot;font-size:11.0pt;color:black;font-weight:400;&#xa;  text-decoration:none;text-underline-style:none;text-line-through:none;&#xa;  font-family:游ゴシック, sans-serif;mso-font-charset:128;border-top:.5pt solid #8ED973;&#xa;  border-right:none;border-bottom:.5pt solid #8ED973;border-left:none&quot;&gt;2&lt;/td&gt;&#xa;  &lt;td align=&quot;right&quot; style=&quot;font-size:11.0pt;color:black;font-weight:400;&#xa;  text-decoration:none;text-underline-style:none;text-line-through:none;&#xa;  font-family:游ゴシック, sans-serif;mso-font-charset:128;border-top:.5pt solid #8ED973;&#xa;  border-right:.5pt solid #8ED973;border-bottom:.5pt solid #8ED973;border-left:&#xa;  none&quot;&gt;5.1&lt;/td&gt;&#xa; &lt;/tr&gt;&#xa; &lt;tr height=&quot;25&quot; style=&quot;height:18.75pt&quot;&gt;&#xa;  &lt;td height=&quot;25&quot; class=&quot;xl65&quot; align=&quot;right&quot; style=&quot;height:18.75pt;font-size:11.0pt;&#xa;  color:black;font-weight:400;text-decoration:none;text-underline-style:none;&#xa;  text-line-through:none;font-family:游ゴシック, sans-serif;mso-font-charset:128;&#xa;  border-top:.5pt solid #8ED973;border-right:none;border-bottom:.5pt solid #8ED973;&#xa;  border-left:.5pt solid #8ED973;background:#DAF2D0;mso-pattern:#DAF2D0 none&quot;&gt;2024/3/31&lt;/td&gt;&#xa;  &lt;td style=&quot;font-size:11.0pt;color:black;font-weight:400;text-decoration:none;&#xa;  text-underline-style:none;text-line-through:none;font-family:游ゴシック, sans-serif;&#xa;  mso-font-charset:128;border-top:.5pt solid #8ED973;border-right:none;&#xa;  border-bottom:.5pt solid #8ED973;border-left:none;background:#DAF2D0;&#xa;  mso-pattern:#DAF2D0 none&quot;&gt;伊東&lt;/td&gt;&#xa;  &lt;td style=&quot;font-size:11.0pt;color:black;font-weight:400;text-decoration:none;&#xa;  text-underline-style:none;text-line-through:none;font-family:游ゴシック, sans-serif;&#xa;  mso-font-charset:128;border-top:.5pt solid #8ED973;border-right:none;&#xa;  border-bottom:.5pt solid #8ED973;border-left:none;background:#DAF2D0;&#xa;  mso-pattern:#DAF2D0 none&quot;&gt;5R&lt;/td&gt;&#xa;  &lt;td style=&quot;font-size:11.0pt;color:black;font-weight:400;text-decoration:none;&#xa;  text-underline-style:none;text-line-through:none;font-family:游ゴシック, sans-serif;&#xa;  mso-font-charset:128;border-top:.5pt solid #8ED973;border-right:none;&#xa;  border-bottom:.5pt solid #8ED973;border-left:none;background:#DAF2D0;&#xa;  mso-pattern:#DAF2D0 none&quot;&gt;1.0&lt;/td&gt;&#xa;  &lt;td style=&quot;font-size:11.0pt;color:black;font-weight:400;text-decoration:none;&#xa;  text-underline-style:none;text-line-through:none;font-family:游ゴシック, sans-serif;&#xa;  mso-font-charset:128;border-top:.5pt solid #8ED973;border-right:none;&#xa;  border-bottom:.5pt solid #8ED973;border-left:none;background:#DAF2D0;&#xa;  mso-pattern:#DAF2D0 none&quot;&gt;○&lt;/td&gt;&#xa;  &lt;td align=&quot;right&quot; style=&quot;font-size:11.0pt;color:black;font-weight:400;&#xa;  text-decoration:none;text-underline-style:none;text-line-through:none;&#xa;  font-family:游ゴシック, sans-serif;mso-font-charset:128;border-top:.5pt solid #8ED973;&#xa;  border-right:none;border-bottom:.5pt solid #8ED973;border-left:none;&#xa;  background:#DAF2D0;mso-pattern:#DAF2D0 none&quot;&gt;5&lt;/td&gt;&#xa;  &lt;td align=&quot;right&quot; style=&quot;font-size:11.0pt;color:black;font-weight:400;&#xa;  text-decoration:none;text-underline-style:none;text-line-through:none;&#xa;  font-family:游ゴシック, sans-serif;mso-font-charset:128;border-top:.5pt solid #8ED973;&#xa;  border-right:none;border-bottom:.5pt solid #8ED973;border-left:none;&#xa;  background:#DAF2D0;mso-pattern:#DAF2D0 none&quot;&gt;17.5&lt;/td&gt;&#xa;  &lt;td align=&quot;right&quot; style=&quot;font-size:11.0pt;color:black;font-weight:400;&#xa;  text-decoration:none;text-underline-style:none;text-line-through:none;&#xa;  font-family:游ゴシック, sans-serif;mso-font-charset:128;border-top:.5pt solid #8ED973;&#xa;  border-right:none;border-bottom:.5pt solid #8ED973;border-left:none;&#xa;  background:#DAF2D0;mso-pattern:#DAF2D0 none&quot;&gt;1&lt;/td&gt;&#xa;  &lt;td align=&quot;right&quot; style=&quot;font-size:11.0pt;color:black;font-weight:400;&#xa;  text-decoration:none;text-underline-style:none;text-line-through:none;&#xa;  font-family:游ゴシック, sans-serif;mso-font-charset:128;border-top:.5pt solid #8ED973;&#xa;  border-right:none;border-bottom:.5pt solid #8ED973;border-left:none;&#xa;  background:#DAF2D0;mso-pattern:#DAF2D0 none&quot;&gt;1.5&lt;/td&gt;&#xa;  &lt;td align=&quot;right&quot; style=&quot;font-size:11.0pt;color:black;font-weight:400;&#xa;  text-decoration:none;text-underline-style:none;text-line-through:none;&#xa;  font-family:游ゴシック, sans-serif;mso-font-charset:128;border-top:.5pt solid #8ED973;&#xa;  border-right:none;border-bottom:.5pt solid #8ED973;border-left:none;&#xa;  background:#DAF2D0;mso-pattern:#DAF2D0 none&quot;&gt;3&lt;/td&gt;&#xa;  &lt;td align=&quot;right&quot; style=&quot;font-size:11.0pt;color:black;font-weight:400;&#xa;  text-decoration:none;text-underline-style:none;text-line-through:none;&#xa;  font-family:游ゴシック, sans-serif;mso-font-charset:128;border-top:.5pt solid #8ED973;&#xa;  border-right:none;border-bottom:.5pt solid #8ED973;border-left:none;&#xa;  background:#DAF2D0;mso-pattern:#DAF2D0 none&quot;&gt;11.9&lt;/td&gt;&#xa;  &lt;td align=&quot;right&quot; style=&quot;font-size:11.0pt;color:black;font-weight:400;&#xa;  text-decoration:none;text-underline-style:none;text-line-through:none;&#xa;  font-family:游ゴシック, sans-serif;mso-font-charset:128;border-top:.5pt solid #8ED973;&#xa;  border-right:none;border-bottom:.5pt solid #8ED973;border-left:none;&#xa;  background:#DAF2D0;mso-pattern:#DAF2D0 none&quot;&gt;2&lt;/td&gt;&#xa;  &lt;td align=&quot;right&quot; style=&quot;font-size:11.0pt;color:black;font-weight:400;&#xa;  text-decoration:none;text-underline-style:none;text-line-through:none;&#xa;  font-family:游ゴシック, sans-serif;mso-font-charset:128;border-top:.5pt solid #8ED973;&#xa;  border-right:.5pt solid #8ED973;border-bottom:.5pt solid #8ED973;border-left:&#xa;  none;background:#DAF2D0;mso-pattern:#DAF2D0 none&quot;&gt;11&lt;/td&gt;&#xa; &lt;/tr&gt;&#xa;&#xa;&lt;/tbody&gt;&lt;/table&gt;" style="text;whiteSpace=wrap;html=1;" vertex="1" parent="1">
                    <mxGeometry x="1760" y="-2650" width="560" height="5600" as="geometry"/>
                </mxCell>
            </root>
        </mxGraphModel>
    </diagram>
</mxfile>